<svg width="112" height="14" viewBox="0 0 112 14" fill="none" xmlns="http://www.w3.org/2000/svg">
<path d="M3.92 13.68V0.519999H5.068V13.68H3.92ZM4.354 12.14C3.58867 12.14 2.856 12.0327 2.156 11.818C1.456 11.594 0.900667 11.3093 0.49 10.964L1.12 9.55C1.512 9.858 1.99733 10.1147 2.576 10.32C3.15467 10.5253 3.74733 10.628 4.354 10.628C4.86733 10.628 5.28267 10.572 5.6 10.46C5.91733 10.348 6.15067 10.1987 6.3 10.012C6.44933 9.816 6.524 9.59667 6.524 9.354C6.524 9.05533 6.41667 8.81733 6.202 8.64C5.98733 8.45333 5.70733 8.30867 5.362 8.206C5.026 8.094 4.648 7.99133 4.228 7.898C3.81733 7.80467 3.402 7.69733 2.982 7.576C2.57133 7.44533 2.19333 7.282 1.848 7.086C1.512 6.88067 1.23667 6.61 1.022 6.274C0.807333 5.938 0.7 5.50867 0.7 4.986C0.7 4.454 0.84 3.96867 1.12 3.53C1.40933 3.082 1.84333 2.72733 2.422 2.466C3.01 2.19533 3.752 2.06 4.648 2.06C5.236 2.06 5.81933 2.13467 6.398 2.284C6.97667 2.43333 7.48067 2.648 7.91 2.928L7.336 4.342C6.89733 4.08067 6.44467 3.88933 5.978 3.768C5.51133 3.63733 5.06333 3.572 4.634 3.572C4.13 3.572 3.71933 3.63267 3.402 3.754C3.094 3.87533 2.86533 4.034 2.716 4.23C2.576 4.426 2.506 4.65 2.506 4.902C2.506 5.20067 2.60867 5.44333 2.814 5.63C3.02867 5.80733 3.304 5.94733 3.64 6.05C3.98533 6.15267 4.368 6.25533 4.788 6.358C5.208 6.45133 5.62333 6.55867 6.034 6.68C6.454 6.80133 6.832 6.96 7.168 7.156C7.51333 7.352 7.78867 7.618 7.994 7.954C8.20867 8.29 8.316 8.71467 8.316 9.228C8.316 9.75067 8.17133 10.236 7.882 10.684C7.602 11.1227 7.168 11.4773 6.58 11.748C5.992 12.0093 5.25 12.14 4.354 12.14ZM14.8578 12V2.9L15.6558 3.726H12.7858V2.2H16.6778V12H14.8578ZM21.9259 2.06C22.8219 2.06 23.5825 2.25133 24.2079 2.634C24.8425 3.00733 25.3279 3.55333 25.6639 4.272C25.9999 4.99067 26.1679 5.87733 26.1679 6.932C26.1679 8.052 25.9625 8.99933 25.5519 9.774C25.1505 10.5487 24.5905 11.1367 23.8719 11.538C23.1532 11.9393 22.3179 12.14 21.3659 12.14C20.8712 12.14 20.3999 12.0887 19.9519 11.986C19.5039 11.8833 19.1165 11.7247 18.7899 11.51L19.4619 10.138C19.7325 10.3153 20.0265 10.4413 20.3439 10.516C20.6612 10.5813 20.9879 10.614 21.3239 10.614C22.2479 10.614 22.9805 10.3293 23.5219 9.76C24.0632 9.19067 24.3339 8.35067 24.3339 7.24C24.3339 7.06267 24.3292 6.85733 24.3199 6.624C24.3105 6.38133 24.2779 6.13867 24.2219 5.896L24.7819 6.512C24.6232 6.89467 24.3945 7.21667 24.0959 7.478C23.7972 7.73 23.4472 7.92133 23.0459 8.052C22.6445 8.18267 22.2012 8.248 21.7159 8.248C21.0812 8.248 20.5072 8.12667 19.9939 7.884C19.4899 7.632 19.0885 7.282 18.7899 6.834C18.4912 6.37667 18.3419 5.84467 18.3419 5.238C18.3419 4.58467 18.5005 4.02467 18.8179 3.558C19.1352 3.082 19.5645 2.71333 20.1059 2.452C20.6565 2.19067 21.2632 2.06 21.9259 2.06ZM22.0239 3.488C21.6505 3.488 21.3192 3.558 21.0299 3.698C20.7405 3.82867 20.5119 4.02 20.3439 4.272C20.1852 4.51467 20.1059 4.80867 20.1059 5.154C20.1059 5.66733 20.2832 6.07333 20.6379 6.372C20.9925 6.67067 21.4685 6.82 22.0659 6.82C22.4579 6.82 22.8032 6.75 23.1019 6.61C23.4005 6.46067 23.6339 6.26 23.8019 6.008C23.9699 5.74667 24.0539 5.45733 24.0539 5.14C24.0539 4.832 23.9745 4.55667 23.8159 4.314C23.6572 4.062 23.4285 3.86133 23.1299 3.712C22.8312 3.56267 22.4625 3.488 22.0239 3.488ZM28.3271 12.098C28.0098 12.098 27.7391 11.9907 27.5151 11.776C27.2911 11.552 27.1791 11.272 27.1791 10.936C27.1791 10.5813 27.2911 10.3013 27.5151 10.096C27.7391 9.88133 28.0098 9.774 28.3271 9.774C28.6445 9.774 28.9151 9.88133 29.1391 10.096C29.3631 10.3013 29.4751 10.5813 29.4751 10.936C29.4751 11.272 29.3631 11.552 29.1391 11.776C28.9151 11.9907 28.6445 12.098 28.3271 12.098ZM33.9571 2.06C34.8531 2.06 35.6138 2.25133 36.2391 2.634C36.8738 3.00733 37.3591 3.55333 37.6951 4.272C38.0311 4.99067 38.1991 5.87733 38.1991 6.932C38.1991 8.052 37.9938 8.99933 37.5831 9.774C37.1818 10.5487 36.6218 11.1367 35.9031 11.538C35.1844 11.9393 34.3491 12.14 33.3971 12.14C32.9024 12.14 32.4311 12.0887 31.9831 11.986C31.5351 11.8833 31.1478 11.7247 30.8211 11.51L31.4931 10.138C31.7638 10.3153 32.0578 10.4413 32.3751 10.516C32.6924 10.5813 33.0191 10.614 33.3551 10.614C34.2791 10.614 35.0118 10.3293 35.5531 9.76C36.0944 9.19067 36.3651 8.35067 36.3651 7.24C36.3651 7.06267 36.3604 6.85733 36.3511 6.624C36.3418 6.38133 36.3091 6.13867 36.2531 5.896L36.8131 6.512C36.6544 6.89467 36.4258 7.21667 36.1271 7.478C35.8284 7.73 35.4784 7.92133 35.0771 8.052C34.6758 8.18267 34.2324 8.248 33.7471 8.248C33.1124 8.248 32.5384 8.12667 32.0251 7.884C31.5211 7.632 31.1198 7.282 30.8211 6.834C30.5224 6.37667 30.3731 5.84467 30.3731 5.238C30.3731 4.58467 30.5318 4.02467 30.8491 3.558C31.1664 3.082 31.5958 2.71333 32.1371 2.452C32.6878 2.19067 33.2944 2.06 33.9571 2.06ZM34.0551 3.488C33.6818 3.488 33.3504 3.558 33.0611 3.698C32.7718 3.82867 32.5431 4.02 32.3751 4.272C32.2164 4.51467 32.1371 4.80867 32.1371 5.154C32.1371 5.66733 32.3144 6.07333 32.6691 6.372C33.0238 6.67067 33.4998 6.82 34.0971 6.82C34.4891 6.82 34.8344 6.75 35.1331 6.61C35.4318 6.46067 35.6651 6.26 35.8331 6.008C36.0011 5.74667 36.0851 5.45733 36.0851 5.14C36.0851 4.832 36.0058 4.55667 35.8471 4.314C35.6884 4.062 35.4598 3.86133 35.1611 3.712C34.8624 3.56267 34.4938 3.488 34.0551 3.488ZM42.7345 2.06C43.6305 2.06 44.3911 2.25133 45.0165 2.634C45.6511 3.00733 46.1365 3.55333 46.4725 4.272C46.8085 4.99067 46.9765 5.87733 46.9765 6.932C46.9765 8.052 46.7711 8.99933 46.3605 9.774C45.9591 10.5487 45.3991 11.1367 44.6805 11.538C43.9618 11.9393 43.1265 12.14 42.1745 12.14C41.6798 12.14 41.2085 12.0887 40.7605 11.986C40.3125 11.8833 39.9251 11.7247 39.5985 11.51L40.2705 10.138C40.5411 10.3153 40.8351 10.4413 41.1525 10.516C41.4698 10.5813 41.7965 10.614 42.1325 10.614C43.0565 10.614 43.7891 10.3293 44.3305 9.76C44.8718 9.19067 45.1425 8.35067 45.1425 7.24C45.1425 7.06267 45.1378 6.85733 45.1285 6.624C45.1191 6.38133 45.0865 6.13867 45.0305 5.896L45.5905 6.512C45.4318 6.89467 45.2031 7.21667 44.9045 7.478C44.6058 7.73 44.2558 7.92133 43.8545 8.052C43.4531 8.18267 43.0098 8.248 42.5245 8.248C41.8898 8.248 41.3158 8.12667 40.8025 7.884C40.2985 7.632 39.8971 7.282 39.5985 6.834C39.2998 6.37667 39.1505 5.84467 39.1505 5.238C39.1505 4.58467 39.3091 4.02467 39.6265 3.558C39.9438 3.082 40.3731 2.71333 40.9145 2.452C41.4651 2.19067 42.0718 2.06 42.7345 2.06ZM42.8325 3.488C42.4591 3.488 42.1278 3.558 41.8385 3.698C41.5491 3.82867 41.3205 4.02 41.1525 4.272C40.9938 4.51467 40.9145 4.80867 40.9145 5.154C40.9145 5.66733 41.0918 6.07333 41.4465 6.372C41.8011 6.67067 42.2771 6.82 42.8745 6.82C43.2665 6.82 43.6118 6.75 43.9105 6.61C44.2091 6.46067 44.4425 6.26 44.6105 6.008C44.7785 5.74667 44.8625 5.45733 44.8625 5.14C44.8625 4.832 44.7831 4.55667 44.6245 4.314C44.4658 4.062 44.2371 3.86133 43.9385 3.712C43.6398 3.56267 43.2711 3.488 42.8325 3.488ZM66.252 13.68V0.519999H66.952V13.68H66.252ZM66.546 12.084C65.818 12.084 65.118 11.9673 64.446 11.734C63.7834 11.4913 63.27 11.1833 62.906 10.81L63.312 10.012C63.6574 10.348 64.1194 10.6327 64.698 10.866C65.286 11.09 65.902 11.202 66.546 11.202C67.162 11.202 67.6614 11.1273 68.044 10.978C68.436 10.8193 68.7207 10.6093 68.898 10.348C69.0847 10.0867 69.178 9.79733 69.178 9.48C69.178 9.09733 69.066 8.78933 68.842 8.556C68.6274 8.32267 68.3427 8.14067 67.988 8.01C67.6334 7.87 67.2414 7.74867 66.812 7.646C66.3827 7.54333 65.9534 7.436 65.524 7.324C65.0947 7.20267 64.698 7.044 64.334 6.848C63.9794 6.652 63.69 6.39533 63.466 6.078C63.2514 5.75133 63.144 5.32667 63.144 4.804C63.144 4.31867 63.27 3.87533 63.522 3.474C63.7834 3.06333 64.18 2.73667 64.712 2.494C65.244 2.242 65.9254 2.116 66.756 2.116C67.3067 2.116 67.8527 2.19533 68.394 2.354C68.9354 2.50333 69.402 2.71333 69.794 2.984L69.444 3.81C69.024 3.53 68.576 3.32467 68.1 3.194C67.6334 3.06333 67.1807 2.998 66.742 2.998C66.154 2.998 65.6687 3.07733 65.286 3.236C64.9034 3.39467 64.6187 3.60933 64.432 3.88C64.2547 4.14133 64.166 4.44 64.166 4.776C64.166 5.15867 64.2734 5.46667 64.488 5.7C64.712 5.93333 65.0014 6.11533 65.356 6.246C65.72 6.37667 66.1167 6.49333 66.546 6.596C66.9754 6.69867 67.4 6.81067 67.82 6.932C68.2494 7.05333 68.6414 7.212 68.996 7.408C69.36 7.59467 69.6494 7.84667 69.864 8.164C70.088 8.48133 70.2 8.89667 70.2 9.41C70.2 9.886 70.0694 10.3293 69.808 10.74C69.5467 11.1413 69.1454 11.468 68.604 11.72C68.072 11.9627 67.386 12.084 66.546 12.084ZM75.0714 12V11.286L79.1454 7.296C79.5187 6.932 79.7987 6.61467 79.9854 6.344C80.1721 6.064 80.2981 5.80267 80.3634 5.56C80.4287 5.31733 80.4614 5.08867 80.4614 4.874C80.4614 4.30467 80.2654 3.85667 79.8734 3.53C79.4907 3.20333 78.9214 3.04 78.1654 3.04C77.5867 3.04 77.0734 3.12867 76.6254 3.306C76.1867 3.48333 75.8087 3.75867 75.4914 4.132L74.7774 3.516C75.1601 3.068 75.6501 2.72267 76.2474 2.48C76.8447 2.23733 77.5121 2.116 78.2494 2.116C78.9121 2.116 79.4861 2.22333 79.9714 2.438C80.4567 2.64333 80.8301 2.94667 81.0914 3.348C81.3621 3.74933 81.4974 4.22067 81.4974 4.762C81.4974 5.07933 81.4507 5.392 81.3574 5.7C81.2734 6.008 81.1147 6.33467 80.8814 6.68C80.6574 7.016 80.3261 7.39867 79.8874 7.828L76.1494 11.496L75.8694 11.104H81.9454V12H75.0714ZM86.1364 12.084C85.4271 12.084 84.7551 11.972 84.1204 11.748C83.4951 11.5147 82.9911 11.2067 82.6084 10.824L83.0984 10.026C83.4158 10.3527 83.8404 10.6233 84.3724 10.838C84.9138 11.0527 85.5018 11.16 86.1364 11.16C86.9484 11.16 87.5691 10.9827 87.9984 10.628C88.4371 10.2733 88.6564 9.79733 88.6564 9.2C88.6564 8.60267 88.4418 8.12667 88.0124 7.772C87.5924 7.41733 86.9251 7.24 86.0104 7.24H85.3104V6.498L88.3344 2.704L88.4744 3.096H83.0144V2.2H89.3144V2.914L86.2904 6.708L85.8004 6.386H86.1784C87.3544 6.386 88.2318 6.64733 88.8104 7.17C89.3984 7.69267 89.6924 8.36467 89.6924 9.186C89.6924 9.73667 89.5618 10.2313 89.3004 10.67C89.0391 11.1087 88.6424 11.454 88.1104 11.706C87.5878 11.958 86.9298 12.084 86.1364 12.084ZM91.8688 12.07C91.6634 12.07 91.4861 11.9953 91.3368 11.846C91.1968 11.6967 91.1268 11.5147 91.1268 11.3C91.1268 11.076 91.1968 10.894 91.3368 10.754C91.4861 10.614 91.6634 10.544 91.8688 10.544C92.0741 10.544 92.2468 10.614 92.3868 10.754C92.5361 10.894 92.6108 11.076 92.6108 11.3C92.6108 11.5147 92.5361 11.6967 92.3868 11.846C92.2468 11.9953 92.0741 12.07 91.8688 12.07ZM97.8352 12.084C97.0792 12.084 96.4072 11.888 95.8192 11.496C95.2312 11.0947 94.7692 10.5253 94.4332 9.788C94.0972 9.04133 93.9292 8.14533 93.9292 7.1C93.9292 6.05467 94.0972 5.16333 94.4332 4.426C94.7692 3.67933 95.2312 3.11 95.8192 2.718C96.4072 2.31667 97.0792 2.116 97.8352 2.116C98.5912 2.116 99.2632 2.31667 99.8512 2.718C100.439 3.11 100.901 3.67933 101.237 4.426C101.583 5.16333 101.755 6.05467 101.755 7.1C101.755 8.14533 101.583 9.04133 101.237 9.788C100.901 10.5253 100.439 11.0947 99.8512 11.496C99.2632 11.888 98.5912 12.084 97.8352 12.084ZM97.8352 11.16C98.4138 11.16 98.9178 11.006 99.3472 10.698C99.7765 10.3807 100.113 9.92333 100.355 9.326C100.598 8.71933 100.719 7.97733 100.719 7.1C100.719 6.22267 100.598 5.48533 100.355 4.888C100.113 4.28133 99.7765 3.824 99.3472 3.516C98.9178 3.19867 98.4138 3.04 97.8352 3.04C97.2752 3.04 96.7758 3.19867 96.3372 3.516C95.8985 3.824 95.5578 4.28133 95.3152 4.888C95.0725 5.48533 94.9512 6.22267 94.9512 7.1C94.9512 7.97733 95.0725 8.71933 95.3152 9.326C95.5578 9.92333 95.8985 10.3807 96.3372 10.698C96.7758 11.006 97.2752 11.16 97.8352 11.16ZM107.105 12.084C106.349 12.084 105.677 11.888 105.089 11.496C104.501 11.0947 104.039 10.5253 103.703 9.788C103.367 9.04133 103.199 8.14533 103.199 7.1C103.199 6.05467 103.367 5.16333 103.703 4.426C104.039 3.67933 104.501 3.11 105.089 2.718C105.677 2.31667 106.349 2.116 107.105 2.116C107.861 2.116 108.533 2.31667 109.121 2.718C109.709 3.11 110.171 3.67933 110.507 4.426C110.852 5.16333 111.025 6.05467 111.025 7.1C111.025 8.14533 110.852 9.04133 110.507 9.788C110.171 10.5253 109.709 11.0947 109.121 11.496C108.533 11.888 107.861 12.084 107.105 12.084ZM107.105 11.16C107.683 11.16 108.187 11.006 108.617 10.698C109.046 10.3807 109.382 9.92333 109.625 9.326C109.867 8.71933 109.989 7.97733 109.989 7.1C109.989 6.22267 109.867 5.48533 109.625 4.888C109.382 4.28133 109.046 3.824 108.617 3.516C108.187 3.19867 107.683 3.04 107.105 3.04C106.545 3.04 106.045 3.19867 105.607 3.516C105.168 3.824 104.827 4.28133 104.585 4.888C104.342 5.48533 104.221 6.22267 104.221 7.1C104.221 7.97733 104.342 8.71933 104.585 9.326C104.827 9.92333 105.168 10.3807 105.607 10.698C106.045 11.006 106.545 11.16 107.105 11.16Z" fill="#818181"/>
<path d="M62.248 7.66H111.739V8.36H62.248V7.66Z" fill="#818181"/>
</svg>
