<svg width="25" height="23" viewBox="0 0 25 23" fill="none" xmlns="http://www.w3.org/2000/svg">
<path d="M6.20776 17.4046H16.2275C16.4756 17.4046 16.6932 17.2404 16.7604 17.0019L18.9789 9.23017C19.0265 9.06262 18.9939 8.88264 18.8889 8.74343C18.7838 8.60466 18.6203 8.52269 18.4458 8.52269H4.92744L4.53099 6.73708C4.47467 6.4828 4.24937 6.30225 3.9894 6.30225H0.624901C0.318433 6.30225 0.0703125 6.5506 0.0703125 6.85736C0.0703125 7.16426 0.318433 7.41247 0.624901 7.41247H3.54429L5.54702 16.433C4.95777 16.6895 4.54399 17.2765 4.54399 17.9597C4.54399 18.878 5.29037 19.6251 6.20776 19.6251H16.2275C16.5341 19.6251 16.7821 19.3768 16.7821 19.0699C16.7821 18.7632 16.5341 18.5148 16.2275 18.5148H6.20776C5.9023 18.5148 5.65317 18.266 5.65317 17.9597C5.65317 17.6534 5.9023 17.4046 6.20776 17.4046Z" fill="white"/>
<path d="M5.65332 21.2895C5.65332 22.2076 6.39971 22.9544 7.31724 22.9544C8.23463 22.9544 8.98102 22.2076 8.98102 21.2895C8.98102 20.3714 8.23463 19.6245 7.31724 19.6245C6.39971 19.6245 5.65332 20.3714 5.65332 21.2895Z" fill="white"/>
<path d="M13.4541 21.2895C13.4541 22.2076 14.2005 22.9544 15.1179 22.9544C16.0354 22.9544 16.7817 22.2076 16.7817 21.2895C16.7817 20.3714 16.0354 19.6245 15.1179 19.6245C14.2005 19.6245 13.4541 20.3714 13.4541 21.2895Z" fill="white"/>
<circle cx="17.5" cy="7.5" r="7.5" fill="#4A3021"/>
<path d="M19.791 11H14.8008V9.9502L16.5928 8.13867C17.1234 7.59505 17.4701 7.21908 17.6328 7.01074C17.7956 6.79915 17.9128 6.60384 17.9844 6.4248C18.056 6.24577 18.0918 6.06022 18.0918 5.86816C18.0918 5.58171 18.012 5.36849 17.8525 5.22852C17.6963 5.08854 17.4863 5.01855 17.2227 5.01855C16.946 5.01855 16.6774 5.08203 16.417 5.20898C16.1566 5.33594 15.8848 5.5166 15.6016 5.75098L14.7812 4.7793C15.1328 4.47982 15.4242 4.26823 15.6553 4.14453C15.8864 4.02083 16.1387 3.92643 16.4121 3.86133C16.6855 3.79297 16.9915 3.75879 17.3301 3.75879C17.776 3.75879 18.1699 3.84017 18.5117 4.00293C18.8535 4.16569 19.1188 4.39355 19.3076 4.68652C19.4964 4.97949 19.5908 5.31478 19.5908 5.69238C19.5908 6.02116 19.5322 6.3304 19.415 6.62012C19.3011 6.90658 19.1221 7.20117 18.8779 7.50391C18.637 7.80664 18.2106 8.23796 17.5986 8.79785L16.6807 9.66211V9.73047H19.791V11Z" fill="white"/>
</svg>
