<svg width="44" height="44" viewBox="0 0 44 44" fill="none" xmlns="http://www.w3.org/2000/svg">
<circle cx="22" cy="22" r="21" fill="#F6F4F2" stroke="#C4C4C4" stroke-width="2"/>
<path d="M26.926 12.0044L24.2028 12C21.1434 12 19.1663 14.0285 19.1663 17.1681V19.551H16.4282C16.1916 19.551 16 19.7428 16 19.9794V23.4319C16 23.6685 16.1918 23.8601 16.4282 23.8601H19.1663V32.5718C19.1663 32.8084 19.3579 33 19.5945 33H23.1668C23.4034 33 23.595 32.8082 23.595 32.5718V23.8601H26.7965C27.0331 23.8601 27.2247 23.6685 27.2247 23.4319L27.226 19.9794C27.226 19.8658 27.1808 19.757 27.1006 19.6766C27.0204 19.5962 26.9112 19.551 26.7976 19.551H23.595V17.531C23.595 16.5601 23.8264 16.0673 25.0911 16.0673L26.9256 16.0666C27.162 16.0666 27.3536 15.8748 27.3536 15.6384V12.4326C27.3536 12.1964 27.1622 12.0048 26.926 12.0044Z" fill="#999999"/>
</svg>
