<svg width="64" height="64" viewBox="0 0 64 64" fill="none" xmlns="http://www.w3.org/2000/svg">
<g clip-path="url(#clip0_75_535)">
<path d="M32 0C18.5073 0 7.5293 10.978 7.5293 24.4707V47.0586C7.5293 50.1729 10.0625 52.7061 13.1763 52.7061C16.2905 52.7061 18.8237 50.1729 18.8237 47.0586V28.2354C18.8237 25.1216 16.2905 22.5884 13.1763 22.5884C12.5425 22.5884 11.9429 22.7168 11.373 22.9102C12.1763 12.2212 21.1108 3.76465 32 3.76465C42.8833 3.76465 51.8154 12.2134 52.626 22.895C52.0596 22.7012 51.4565 22.5884 50.8237 22.5884C47.7095 22.5884 45.1763 25.1216 45.1763 28.2354V47.0586C45.1763 50.1729 47.7095 52.7061 50.8237 52.7061C51.4868 52.7061 52.1143 52.5703 52.7061 52.3594V54.5884C52.7061 55.627 51.8604 56.4707 50.8237 56.4707H37.3003C36.5205 54.2842 34.4507 52.7061 32 52.7061C28.8862 52.7061 26.353 55.2393 26.353 58.353C26.353 61.4668 28.8862 64 32 64C34.4507 64 36.5205 62.4214 37.3003 60.2354H50.8237C53.9375 60.2354 56.4707 57.7021 56.4707 54.5884C56.4707 43.2661 56.4707 35.8052 56.4707 24.4707C56.4707 10.978 45.4927 0 32 0V0Z" fill="white"/>
<path d="M60.2354 26.6997V48.5942C62.4214 47.8149 64 45.7451 64 43.2939V32C64 29.5493 62.4214 27.4795 60.2354 26.6997Z" fill="white"/>
<path d="M0 32V43.2939C0 45.7451 1.57861 47.8149 3.76465 48.5942V26.6997C1.57861 27.4795 0 29.5493 0 32Z" fill="white"/>
</g>
<defs>
<clipPath id="clip0_75_535">
<rect width="64" height="64" fill="white"/>
</clipPath>
</defs>
</svg>
