<svg width="44" height="44" viewBox="0 0 44 44" fill="none" xmlns="http://www.w3.org/2000/svg">
<circle cx="22" cy="22" r="21" fill="#F6F4F2" stroke="#C4C4C4" stroke-width="2"/>
<path d="M15.8891 12.9648C14.5142 12.9648 13.6152 13.8225 13.6152 14.9498C13.6152 16.0522 14.4874 16.9344 15.8363 16.9344H15.8624C17.2642 16.9344 18.1366 16.0522 18.1366 14.9498C18.1104 13.8225 17.2642 12.9648 15.8891 12.9648Z" fill="#999999"/>
<path d="M13.8525 18.5028H17.8719V29.9907H13.8525V18.5028Z" fill="#999999"/>
<path d="M27.7385 18.2333C25.5702 18.2333 24.1162 20.1689 24.1162 20.1689V18.5029H20.0967V29.9908H24.116V23.5755C24.116 23.2321 24.1422 22.8892 24.2484 22.6436C24.5389 21.9578 25.2002 21.2473 26.3106 21.2473C27.765 21.2473 28.3467 22.3008 28.3467 23.8451V29.9908H32.3658V23.4038C32.3658 19.8753 30.3827 18.2333 27.7385 18.2333Z" fill="#999999"/>
</svg>
