<svg width="44" height="44" viewBox="0 0 44 44" fill="none" xmlns="http://www.w3.org/2000/svg">
<circle cx="22" cy="22" r="21" fill="#F6F4F2" stroke="#C4C4C4" stroke-width="2"/>
<path d="M26.5862 12H17.4138C14.4286 12 12 14.4286 12 17.4138V26.5863C12 29.5714 14.4286 32 17.4138 32H26.5863C29.5714 32 32 29.5714 32 26.5863V17.4138C32 14.4286 29.5714 12 26.5862 12V12ZM22 27.4686C18.9845 27.4686 16.5314 25.0154 16.5314 22C16.5314 18.9845 18.9845 16.5314 22 16.5314C25.0154 16.5314 27.4686 18.9845 27.4686 22C27.4686 25.0154 25.0154 27.4686 22 27.4686ZM27.5993 17.8211C26.7082 17.8211 25.9834 17.0963 25.9834 16.2052C25.9834 15.314 26.7082 14.5891 27.5993 14.5891C28.4904 14.5891 29.2154 15.314 29.2154 16.2052C29.2154 17.0963 28.4904 17.8211 27.5993 17.8211Z" fill="#999999"/>
<path d="M22.0002 17.7039C19.6314 17.7039 17.7041 19.631 17.7041 22C17.7041 24.3687 19.6314 26.2961 22.0002 26.2961C24.3691 26.2961 26.2963 24.3687 26.2963 22C26.2963 19.631 24.3691 17.7039 22.0002 17.7039Z" fill="#999999"/>
<path d="M27.5997 15.7618C27.3552 15.7618 27.1562 15.9608 27.1562 16.2053C27.1562 16.4497 27.3552 16.6487 27.5997 16.6487C27.8443 16.6487 28.0432 16.4499 28.0432 16.2053C28.0432 15.9607 27.8443 15.7618 27.5997 15.7618Z" fill="#999999"/>
</svg>
