<svg width="12" height="12" viewBox="0 0 12 12" fill="none" xmlns="http://www.w3.org/2000/svg">
<path d="M8.32924 7.33299C8.88776 6.56956 9.22183 5.63184 9.22183 4.61526C9.22183 2.0705 7.15328 0 4.61091 0C2.06853 0 0 2.0705 0 4.61526C0 7.16003 2.06855 9.23053 4.61093 9.23053C5.62655 9.23053 6.56348 8.89609 7.32619 8.33705L10.3469 11.3606L11.35 10.3566C11.35 10.3566 8.32924 7.33299 8.32924 7.33299ZM4.61093 7.81044C2.85065 7.81044 1.41876 6.37719 1.41876 4.61526C1.41876 2.85333 2.85065 1.42009 4.61093 1.42009C6.3712 1.42009 7.8031 2.85333 7.8031 4.61526C7.8031 6.37719 6.37118 7.81044 4.61093 7.81044Z" fill="white"/>
</svg>
