<svg width="58" height="58" viewBox="0 0 58 58" fill="none" xmlns="http://www.w3.org/2000/svg">
<g clip-path="url(#clip0_75_521)">
<g filter="url(#filter0_d_75_521)">
<path d="M56.2365 40.0263L33.8335 17.6256V7.6916C33.8335 6.12336 33.4855 4.54299 32.7992 3.06887L32.2893 2.10232C31.6876 0.804682 30.4286 0 29.0005 0C27.5724 0 26.3134 0.804682 25.7383 2.04671L25.1752 3.122C24.5155 4.54288 24.1675 6.12086 24.1675 7.69149V17.6255L1.77178 40.0215C0.631248 41.162 0.00292969 42.6772 0.00292969 44.2914V47.1235C0.00292969 47.5657 0.244538 47.9717 0.631248 48.1819C1.01784 48.3946 1.49155 48.3801 1.86364 48.1384L24.6364 33.5454C24.8611 37.2015 25.1656 40.2535 25.5377 43.9677L25.9219 47.7736L17.4618 53.3629C17.1211 53.59 16.9181 53.967 16.9181 54.3729V56.7893C16.9181 57.1542 17.0849 57.5022 17.37 57.7318C17.6576 57.9637 18.0321 58.0507 18.3873 57.971L29.0004 55.6101L39.6135 57.971C39.7005 57.9904 39.7875 58 39.8745 58C40.1476 58 40.4133 57.9081 40.6308 57.7341C40.9159 57.5022 41.0826 57.1542 41.0826 56.7893V54.3729C41.0826 53.967 40.8796 53.5876 40.5389 53.3653L32.0789 47.7832L32.4631 43.9652C32.8352 40.2559 33.1397 37.2064 33.3644 33.5502L56.1371 48.1383C56.5117 48.3799 56.9829 48.3921 57.3671 48.1818C57.7562 47.9716 57.9978 47.5656 57.9978 47.1234V44.2913C57.9981 42.6772 57.3722 41.162 56.2365 40.0263Z" fill="white"/>
</g>
</g>
<defs>
<filter id="filter0_d_75_521" x="-3.99707" y="0" width="65.9951" height="66" filterUnits="userSpaceOnUse" color-interpolation-filters="sRGB">
<feFlood flood-opacity="0" result="BackgroundImageFix"/>
<feColorMatrix in="SourceAlpha" type="matrix" values="0 0 0 0 0 0 0 0 0 0 0 0 0 0 0 0 0 0 127 0" result="hardAlpha"/>
<feOffset dy="4"/>
<feGaussianBlur stdDeviation="2"/>
<feColorMatrix type="matrix" values="0 0 0 0 0 0 0 0 0 0 0 0 0 0 0 0 0 0 0.25 0"/>
<feBlend mode="normal" in2="BackgroundImageFix" result="effect1_dropShadow_75_521"/>
<feBlend mode="normal" in="SourceGraphic" in2="effect1_dropShadow_75_521" result="shape"/>
</filter>
<clipPath id="clip0_75_521">
<rect width="58" height="58" fill="white"/>
</clipPath>
</defs>
</svg>
