<svg width="58" height="58" viewBox="0 0 58 58" fill="none" xmlns="http://www.w3.org/2000/svg">
<path d="M31.7733 57.8374C43.408 56.5341 52.7324 47.2334 54.0594 35.5987C55.8011 20.3858 43.9767 7.43594 29.1549 7.27007V0.445608C29.1549 0.0664715 28.6809 -0.134945 28.361 0.102016L14.3093 10.4216C14.0723 10.5994 14.0723 10.943 14.3093 11.1207L28.361 21.4403C28.6809 21.6773 29.1549 21.464 29.1549 21.0967V14.2841C39.5693 14.45 47.9103 23.3123 47.1994 33.9044C46.5952 43.0155 39.1664 50.4087 30.0553 50.9893C20.3992 51.6054 12.1885 44.7098 10.7193 35.5868C10.4468 33.8926 8.96582 32.6604 7.25971 32.6604C5.13891 32.6604 3.48018 34.5442 3.81193 36.6413C5.87349 49.6386 17.8755 59.3895 31.7733 57.8374Z" fill="white"/>
</svg>
