<svg width="58" height="58" viewBox="0 0 58 58" fill="none" xmlns="http://www.w3.org/2000/svg">
<path d="M53.345 14.9291C53.2757 13.4033 53.2757 11.9468 53.2757 10.4903C53.2757 9.31121 52.374 8.40957 51.1949 8.40957C42.5253 8.40957 35.9363 5.91271 30.4571 0.572197C29.6248 -0.190732 28.3764 -0.190732 27.5441 0.572197C22.0649 5.91271 15.476 8.40957 6.80631 8.40957C5.62723 8.40957 4.72559 9.31121 4.72559 10.4903C4.72559 11.9468 4.72559 13.4033 4.65623 14.9291C4.3788 29.4942 3.96266 49.4691 28.3071 57.8613L29.0006 58L29.6942 57.8613C53.9692 49.4691 53.6224 29.5635 53.345 14.9291ZM27.3361 35.1121C26.9199 35.4589 26.4344 35.667 25.8795 35.667H25.8102C25.2553 35.667 24.7005 35.3895 24.3537 34.9734L17.9035 27.8296L21.0245 25.0553L26.0876 30.6732L37.3235 19.9922L40.1671 23.0439L27.3361 35.1121Z" fill="white"/>
</svg>
