<svg width="95" height="15" viewBox="0 0 95 15" fill="none" xmlns="http://www.w3.org/2000/svg">
<g clip-path="url(#clip0_75_910)">
<path d="M0.0391016 5.75385C0.137295 5.45012 0.406695 5.23439 0.725421 5.20567L5.05483 4.81255L6.7668 0.805532C6.89303 0.511869 7.18051 0.321777 7.49992 0.321777C7.81934 0.321777 8.10682 0.511869 8.23305 0.806218L9.94502 4.81255L14.2751 5.20567C14.5933 5.23508 14.862 5.45012 14.9607 5.75385C15.0595 6.05759 14.9683 6.39073 14.7276 6.60074L11.4551 9.47076L12.4201 13.7215C12.4907 14.0341 12.3694 14.3572 12.1101 14.5446C11.9707 14.6453 11.8076 14.6966 11.6431 14.6966C11.5013 14.6966 11.3607 14.6584 11.2345 14.5829L7.49992 12.3509L3.76677 14.5829C3.49359 14.7472 3.14923 14.7322 2.89047 14.5446C2.63103 14.3566 2.50983 14.0334 2.58044 13.7215L3.54543 9.47076L0.27291 6.60131C0.0322351 6.39073 -0.0596638 6.05816 0.0391016 5.75385Z" fill="#FFC107"/>
</g>
<g clip-path="url(#clip1_75_910)">
<path d="M20.0391 5.75385C20.1373 5.45012 20.4067 5.23439 20.7254 5.20567L25.0548 4.81255L26.7668 0.805532C26.893 0.511869 27.1805 0.321777 27.4999 0.321777C27.8193 0.321777 28.1068 0.511869 28.2331 0.806218L29.945 4.81255L34.2751 5.20567C34.5933 5.23508 34.862 5.45012 34.9607 5.75385C35.0595 6.05759 34.9683 6.39073 34.7276 6.60074L31.4551 9.47076L32.4201 13.7215C32.4907 14.0341 32.3694 14.3572 32.1101 14.5446C31.9707 14.6453 31.8076 14.6966 31.6431 14.6966C31.5013 14.6966 31.3607 14.6584 31.2345 14.5829L27.4999 12.3509L23.7668 14.5829C23.4936 14.7472 23.1492 14.7322 22.8905 14.5446C22.631 14.3566 22.5098 14.0334 22.5804 13.7215L23.5454 9.47076L20.2729 6.60131C20.0322 6.39073 19.9403 6.05816 20.0391 5.75385Z" fill="#FFC107"/>
</g>
<g clip-path="url(#clip2_75_910)">
<path d="M40.0391 5.75385C40.1373 5.45012 40.4067 5.23439 40.7254 5.20567L45.0548 4.81255L46.7668 0.805532C46.893 0.511869 47.1805 0.321777 47.4999 0.321777C47.8193 0.321777 48.1068 0.511869 48.2331 0.806218L49.945 4.81255L54.2751 5.20567C54.5933 5.23508 54.862 5.45012 54.9607 5.75385C55.0595 6.05759 54.9683 6.39073 54.7276 6.60074L51.4551 9.47076L52.4201 13.7215C52.4907 14.0341 52.3694 14.3572 52.1101 14.5446C51.9707 14.6453 51.8076 14.6966 51.6431 14.6966C51.5013 14.6966 51.3607 14.6584 51.2345 14.5829L47.4999 12.3509L43.7668 14.5829C43.4936 14.7472 43.1492 14.7322 42.8905 14.5446C42.631 14.3566 42.5098 14.0334 42.5804 13.7215L43.5454 9.47076L40.2729 6.60131C40.0322 6.39073 39.9403 6.05816 40.0391 5.75385Z" fill="#FFC107"/>
</g>
<g clip-path="url(#clip3_75_910)">
<path d="M60.0391 5.75385C60.1373 5.45012 60.4067 5.23439 60.7254 5.20567L65.0548 4.81255L66.7668 0.805532C66.893 0.511869 67.1805 0.321777 67.4999 0.321777C67.8193 0.321777 68.1068 0.511869 68.2331 0.806218L69.945 4.81255L74.2751 5.20567C74.5933 5.23508 74.862 5.45012 74.9607 5.75385C75.0595 6.05759 74.9683 6.39073 74.7276 6.60074L71.4551 9.47076L72.4201 13.7215C72.4907 14.0341 72.3694 14.3572 72.1101 14.5446C71.9707 14.6453 71.8076 14.6966 71.6431 14.6966C71.5013 14.6966 71.3607 14.6584 71.2345 14.5829L67.4999 12.3509L63.7668 14.5829C63.4936 14.7472 63.1492 14.7322 62.8905 14.5446C62.631 14.3566 62.5098 14.0334 62.5804 13.7215L63.5454 9.47076L60.2729 6.60131C60.0322 6.39073 59.9403 6.05816 60.0391 5.75385Z" fill="#FFC107"/>
</g>
<g clip-path="url(#clip4_75_910)">
<path d="M80.0391 5.75385C80.1373 5.45012 80.4067 5.23439 80.7254 5.20567L85.0548 4.81255L86.7668 0.805532C86.893 0.511869 87.1805 0.321777 87.4999 0.321777C87.8193 0.321777 88.1068 0.511869 88.2331 0.806218L89.945 4.81255L94.2751 5.20567C94.5933 5.23508 94.862 5.45012 94.9607 5.75385C95.0595 6.05759 94.9683 6.39073 94.7276 6.60074L91.4551 9.47076L92.4201 13.7215C92.4907 14.0341 92.3694 14.3572 92.1101 14.5446C91.9707 14.6453 91.8076 14.6966 91.6431 14.6966C91.5013 14.6966 91.3607 14.6584 91.2345 14.5829L87.4999 12.3509L83.7668 14.5829C83.4936 14.7472 83.1492 14.7322 82.8905 14.5446C82.631 14.3566 82.5098 14.0334 82.5804 13.7215L83.5454 9.47076L80.2729 6.60131C80.0322 6.39073 79.9403 6.05816 80.0391 5.75385Z" fill="#CAC9C9"/>
</g>
<defs>
<clipPath id="clip0_75_910">
<rect width="15" height="15" fill="white" transform="matrix(-1 0 0 1 15 0)"/>
</clipPath>
<clipPath id="clip1_75_910">
<rect width="15" height="15" fill="white" transform="matrix(-1 0 0 1 35 0)"/>
</clipPath>
<clipPath id="clip2_75_910">
<rect width="15" height="15" fill="white" transform="matrix(-1 0 0 1 55 0)"/>
</clipPath>
<clipPath id="clip3_75_910">
<rect width="15" height="15" fill="white" transform="matrix(-1 0 0 1 75 0)"/>
</clipPath>
<clipPath id="clip4_75_910">
<rect width="15" height="15" fill="white" transform="matrix(-1 0 0 1 95 0)"/>
</clipPath>
</defs>
</svg>
