<svg width="60" height="56" viewBox="0 0 60 56" fill="none" xmlns="http://www.w3.org/2000/svg">
<circle cx="30" cy="24" r="21" fill="#F6F4F2" stroke="#C4C4C4" stroke-width="2"/>
<g filter="url(#filter0_d_75_663)">
<path d="M27.4613 32C26.5965 32 25.7063 31.9315 24.8108 31.7943C23.2335 31.5524 21.6368 30.746 21.185 30.5045L20 29.8712L21.2829 29.4588C22.6854 29.0081 23.5385 28.7284 24.5945 28.2905C23.5371 27.79 22.7221 26.8895 22.3298 25.7256L22.0314 24.8399L22.2761 24.8765C22.0441 24.6478 21.8608 24.4157 21.7187 24.2047C21.2135 23.4546 20.946 22.5381 21.003 21.7527L21.0591 20.9796L21.5326 21.1589C21.3328 20.7902 21.1885 20.3965 21.1037 19.9838C20.8969 18.9773 21.0699 17.908 21.591 16.973L22.0035 16.2329L22.5551 16.8806C24.2996 18.929 26.5092 20.1441 29.1317 20.4998C29.0246 19.7781 29.1048 19.0816 29.3705 18.4572C29.6798 17.7303 30.23 17.1138 30.9612 16.6744C31.7733 16.1866 32.7581 15.9502 33.7342 16.0088C34.7698 16.071 35.71 16.4503 36.4568 17.1064C36.8215 17.0137 37.0902 16.9149 37.4533 16.7812C37.6718 16.7008 37.9196 16.6096 38.2297 16.5051L39.3723 16.1203L38.6272 18.2004C38.6763 18.1964 38.727 18.1929 38.7799 18.1907L40 18.1367L39.2789 19.1001C39.2375 19.1552 39.227 19.1709 39.2123 19.1925C39.1542 19.2781 39.0819 19.3846 38.0921 20.6766C37.8443 21.0001 37.7205 21.4214 37.7435 21.8632C37.8313 23.542 37.6206 25.061 37.1169 26.3777C36.6405 27.6234 35.9023 28.6922 34.923 29.5544C33.7111 30.6211 32.1659 31.3515 30.33 31.725C29.4294 31.9081 28.4623 32 27.4613 32Z" fill="#999999"/>
</g>
<defs>
<filter id="filter0_d_75_663" x="0" y="0" width="60" height="56" filterUnits="userSpaceOnUse" color-interpolation-filters="sRGB">
<feFlood flood-opacity="0" result="BackgroundImageFix"/>
<feColorMatrix in="SourceAlpha" type="matrix" values="0 0 0 0 0 0 0 0 0 0 0 0 0 0 0 0 0 0 127 0" result="hardAlpha"/>
<feOffset dy="4"/>
<feGaussianBlur stdDeviation="10"/>
<feColorMatrix type="matrix" values="0 0 0 0 0 0 0 0 0 0 0 0 0 0 0 0 0 0 0.22 0"/>
<feBlend mode="normal" in2="BackgroundImageFix" result="effect1_dropShadow_75_663"/>
<feBlend mode="normal" in="SourceGraphic" in2="effect1_dropShadow_75_663" result="shape"/>
</filter>
</defs>
</svg>
