<svg width="79" height="14" viewBox="0 0 79 14" fill="none" xmlns="http://www.w3.org/2000/svg">
<path d="M9.43086 3.10156C9.3293 3.10547 9.20625 3.12891 9.06172 3.17188C8.91719 3.21094 8.79805 3.25977 8.7043 3.31836C8.57148 3.40039 8.46406 3.50586 8.38203 3.63477C8.30391 3.76367 8.22578 3.91602 8.14766 4.0918C7.88594 4.71289 7.49336 5.68164 6.96992 6.99805C6.44648 8.31055 5.90742 9.67969 5.35273 11.1055H4.86641C4.30391 9.59375 3.76094 8.13672 3.2375 6.73438C2.71406 5.33203 2.35859 4.38477 2.17109 3.89258C2.12422 3.77148 2.06172 3.66602 1.98359 3.57617C1.90547 3.48242 1.80195 3.39453 1.67305 3.3125C1.56758 3.24609 1.45039 3.19727 1.32148 3.16602C1.19258 3.13086 1.07344 3.10937 0.964062 3.10156V2.68555H4.40351V3.10156C4.11055 3.11719 3.8625 3.14648 3.65937 3.18945C3.46016 3.23242 3.36055 3.30859 3.36055 3.41797C3.36055 3.46094 3.36836 3.51172 3.38398 3.57031C3.39961 3.62891 3.41328 3.67578 3.425 3.71094C3.56953 4.09375 3.80391 4.71875 4.12812 5.58594C4.45234 6.44922 4.91328 7.67969 5.51094 9.27734C5.80781 8.55469 6.14961 7.70117 6.53633 6.7168C6.92305 5.73242 7.18281 5.05664 7.31562 4.68945C7.44453 4.33398 7.51875 4.08789 7.53828 3.95117C7.56172 3.81445 7.57344 3.70313 7.57344 3.61719C7.57344 3.52734 7.53242 3.45312 7.45039 3.39453C7.37226 3.33203 7.2668 3.2793 7.13398 3.23633C7.00508 3.19727 6.87422 3.16797 6.74141 3.14844C6.60859 3.12891 6.47383 3.11328 6.33711 3.10156V2.68555H9.43086V3.10156ZM15.1977 11H11.4535V10.584C11.559 10.5762 11.7113 10.5645 11.9105 10.5488C12.1098 10.5332 12.2504 10.5098 12.3324 10.4785C12.4613 10.4277 12.5551 10.3594 12.6137 10.2734C12.6723 10.1836 12.7016 10.0605 12.7016 9.9043V3.88086C12.7016 3.74414 12.6801 3.63086 12.6371 3.54102C12.5941 3.44727 12.4926 3.36914 12.3324 3.30664C12.2152 3.25977 12.0668 3.2168 11.8871 3.17773C11.7113 3.13477 11.5668 3.10937 11.4535 3.10156V2.68555H15.1977V3.10156C15.0766 3.10547 14.932 3.12109 14.7641 3.14844C14.5961 3.17188 14.4496 3.20312 14.3246 3.24219C14.1762 3.28906 14.0766 3.36523 14.0258 3.4707C13.975 3.57617 13.9496 3.69336 13.9496 3.82227V9.83984C13.9496 9.96875 13.977 10.084 14.0316 10.1855C14.0902 10.2832 14.1879 10.3613 14.3246 10.4199C14.4066 10.4512 14.5395 10.4863 14.723 10.5254C14.9105 10.5605 15.0687 10.5801 15.1977 10.584V11ZM25.0309 8.55078L24.8727 11H17.9703V10.584C18.0875 10.5762 18.2437 10.5605 18.4391 10.5371C18.6344 10.5098 18.7613 10.4824 18.8199 10.4551C18.9449 10.3965 19.0309 10.3203 19.0777 10.2266C19.1285 10.1328 19.1539 10.0137 19.1539 9.86914V3.89258C19.1539 3.76367 19.1324 3.65039 19.0895 3.55273C19.0465 3.45117 18.9566 3.36914 18.8199 3.30664C18.7145 3.25586 18.5719 3.21094 18.3922 3.17188C18.2164 3.13281 18.0758 3.10937 17.9703 3.10156V2.68555H24.4039V4.68945H23.9645C23.8863 4.39258 23.7164 4.07812 23.4547 3.74609C23.1969 3.41016 22.9508 3.22656 22.7164 3.19531C22.5953 3.17969 22.4508 3.16797 22.2828 3.16016C22.1148 3.15234 21.9234 3.14844 21.7086 3.14844H20.402V6.45312H21.3395C21.6402 6.45312 21.859 6.42578 21.9957 6.37109C22.1363 6.3125 22.2594 6.2168 22.3648 6.08398C22.4508 5.9707 22.523 5.82031 22.5816 5.63281C22.6441 5.44141 22.6852 5.26172 22.7047 5.09375H23.1441V8.3457H22.7047C22.6891 8.1582 22.6461 7.96094 22.5758 7.75391C22.5094 7.54297 22.4391 7.39062 22.3648 7.29688C22.2437 7.14453 22.1051 7.04492 21.9488 6.99805C21.7965 6.95117 21.5934 6.92773 21.3395 6.92773H20.402V9.42383C20.402 9.67383 20.4195 9.87109 20.4547 10.0156C20.4898 10.1602 20.5582 10.2695 20.6598 10.3438C20.7613 10.418 20.9 10.4668 21.0758 10.4902C21.2516 10.5098 21.5016 10.5195 21.8258 10.5195C21.9547 10.5195 22.1246 10.5195 22.3355 10.5195C22.5465 10.5195 22.7242 10.5117 22.8687 10.4961C23.0172 10.4805 23.1695 10.4531 23.3258 10.4141C23.4859 10.3711 23.5992 10.3145 23.6656 10.2441C23.8453 10.0566 24.0328 9.77344 24.2281 9.39453C24.4273 9.01172 24.5543 8.73047 24.609 8.55078H25.0309ZM38.9891 3.10156C38.8914 3.10547 38.7781 3.12891 38.6492 3.17188C38.5203 3.21094 38.4012 3.26367 38.2918 3.33008C38.1551 3.41602 38.0437 3.51563 37.9578 3.62891C37.8758 3.73828 37.8035 3.89258 37.741 4.0918C37.4637 4.99414 37.1414 6.04883 36.7742 7.25586C36.407 8.45898 36.0105 9.74219 35.5848 11.1055H35.0457L32.948 4.70703L30.7625 11.1055H30.2469C29.8602 9.73828 29.4598 8.32031 29.0457 6.85156C28.6316 5.37891 28.3543 4.39258 28.2137 3.89258C28.1785 3.77148 28.1258 3.66406 28.0555 3.57031C27.9891 3.47656 27.8973 3.39062 27.7801 3.3125C27.6824 3.24609 27.5672 3.19727 27.4344 3.16602C27.3055 3.13086 27.1883 3.10937 27.0828 3.10156V2.68555H30.4754V3.10156C30.1785 3.11719 29.9246 3.14648 29.7137 3.18945C29.5066 3.23242 29.4031 3.30469 29.4031 3.40625C29.4031 3.44531 29.409 3.49805 29.4207 3.56445C29.4324 3.62695 29.4422 3.67773 29.45 3.7168C29.5398 4.06055 29.698 4.62891 29.9246 5.42188C30.1551 6.21094 30.4949 7.39453 30.9441 8.97266L33.0184 2.80273H33.5926L35.6844 9.10742C35.9656 8.13867 36.2078 7.29297 36.4109 6.57031C36.6141 5.84375 36.782 5.22266 36.9148 4.70703C37.0086 4.34375 37.0672 4.0957 37.0906 3.96289C37.1141 3.82617 37.1258 3.71094 37.1258 3.61719C37.1258 3.48437 37.034 3.37305 36.8504 3.2832C36.6707 3.19336 36.3777 3.13281 35.9715 3.10156V2.68555H38.9891V3.10156Z" fill="#BB83A7"/>
<path d="M9.43086 3.10156L9.44239 3.40134L9.73086 3.39025V3.10156H9.43086ZM9.06172 3.17188L9.14002 3.46157L9.14721 3.45944L9.06172 3.17188ZM8.7043 3.31836L8.86195 3.5736L8.8633 3.57276L8.7043 3.31836ZM8.38203 3.63477L8.12887 3.47366L8.12547 3.47927L8.38203 3.63477ZM8.14766 4.0918L7.87346 3.96993L7.8712 3.9753L8.14766 4.0918ZM6.96992 6.99805L7.24858 7.10918L7.24869 7.10889L6.96992 6.99805ZM5.35273 11.1055V11.4055H5.55792L5.63232 11.2142L5.35273 11.1055ZM4.86641 11.1055L4.58524 11.2101L4.65794 11.4055H4.86641V11.1055ZM2.17109 3.89258L2.45144 3.78578L2.45086 3.78428L2.17109 3.89258ZM1.98359 3.57617L1.75308 3.76827L1.75721 3.77303L1.98359 3.57617ZM1.67305 3.3125L1.83411 3.0594L1.83289 3.05863L1.67305 3.3125ZM1.32148 3.16602L1.24252 3.45556L1.2508 3.45757L1.32148 3.16602ZM0.964062 3.10156H0.664062V3.3809L0.942688 3.4008L0.964062 3.10156ZM0.964062 2.68555V2.38555H0.664062V2.68555H0.964062ZM4.40351 2.68555H4.70351V2.38555H4.40351V2.68555ZM4.40351 3.10156L4.41949 3.40114L4.70351 3.38599V3.10156H4.40351ZM3.65937 3.18945L3.59729 2.89595L3.59612 2.8962L3.65937 3.18945ZM3.425 3.71094L3.14017 3.80588L3.14434 3.8169L3.425 3.71094ZM4.12812 5.58594L3.84712 5.691L3.84728 5.69141L4.12812 5.58594ZM5.51094 9.27734L5.22995 9.38245L5.49787 10.0986L5.78843 9.39134L5.51094 9.27734ZM7.31562 4.68945L7.0336 4.58718L7.03351 4.58741L7.31562 4.68945ZM7.53828 3.95117L7.24248 3.90046L7.2413 3.90875L7.53828 3.95117ZM7.45039 3.39453L7.26298 3.62879L7.26937 3.6339L7.27602 3.63865L7.45039 3.39453ZM7.13398 3.23633L7.22635 2.95085L7.22099 2.94922L7.13398 3.23633ZM6.33711 3.10156H6.03711V3.37695L6.31149 3.40047L6.33711 3.10156ZM6.33711 2.68555V2.38555H6.03711V2.68555H6.33711ZM9.43086 2.68555H9.73086V2.38555H9.43086V2.68555ZM9.41933 2.80178C9.28379 2.807 9.13441 2.83729 8.97623 2.88431L9.14721 3.45944C9.27809 3.42053 9.37481 3.40394 9.44239 3.40134L9.41933 2.80178ZM8.98345 2.88227C8.81979 2.9265 8.67116 2.9853 8.5453 3.06396L8.8633 3.57276C8.92494 3.53423 9.01458 3.49538 9.13999 3.46148L8.98345 2.88227ZM8.54665 3.06312C8.37618 3.16841 8.23581 3.30576 8.12893 3.4737L8.63513 3.79583C8.69232 3.70596 8.76678 3.63237 8.86194 3.5736L8.54665 3.06312ZM8.12547 3.47927C8.03928 3.62149 7.95545 3.78559 7.87351 3.96996L8.4218 4.21364C8.49611 4.04644 8.56853 3.90585 8.63859 3.79026L8.12547 3.47927ZM7.8712 3.9753C7.60823 4.59937 7.21471 5.57049 6.69115 6.8872L7.24869 7.10889C7.77201 5.7928 8.16365 4.82642 8.42411 4.20829L7.8712 3.9753ZM6.69126 6.88692C6.16749 8.20026 5.62812 9.57019 5.07315 10.9967L5.63232 11.2142C6.18673 9.78918 6.72548 8.42083 7.24858 7.10918L6.69126 6.88692ZM5.35273 10.8055H4.86641V11.4055H5.35273V10.8055ZM5.14757 11.0008C4.58504 9.48904 4.04203 8.03191 3.51856 6.62947L2.95644 6.83928C3.47984 8.24152 4.02277 9.69846 4.58524 11.2101L5.14757 11.0008ZM3.51856 6.62947C2.99517 5.22724 2.63935 4.27906 2.45144 3.78578L1.89075 3.99938C2.07783 4.49048 2.43296 5.43682 2.95644 6.83928L3.51856 6.62947ZM2.45086 3.78428C2.39259 3.63373 2.31286 3.49764 2.20997 3.37932L1.75721 3.77303C1.81057 3.83439 1.85585 3.90923 1.89132 4.00088L2.45086 3.78428ZM2.21406 3.38412C2.11182 3.26143 1.98287 3.15407 1.83411 3.0594L1.51198 3.5656C1.62103 3.63499 1.69911 3.70341 1.75313 3.76823L2.21406 3.38412ZM1.83289 3.05863C1.69822 2.97384 1.5506 2.91287 1.39216 2.87446L1.2508 3.45757C1.35018 3.48166 1.43694 3.51835 1.5132 3.56637L1.83289 3.05863ZM1.40042 2.87659C1.25661 2.83737 1.11794 2.81179 0.985436 2.80232L0.942688 3.4008C1.02893 3.40696 1.12855 3.42435 1.24255 3.45544L1.40042 2.87659ZM1.26406 3.10156V2.68555H0.664062V3.10156H1.26406ZM0.964062 2.98555H4.40351V2.38555H0.964062V2.98555ZM4.10351 2.68555V3.10156H4.70351V2.68555H4.10351ZM4.38754 2.80199C4.08485 2.81813 3.82038 2.84876 3.59729 2.89595L3.72146 3.48296C3.90462 3.44421 4.13624 3.41624 4.41949 3.40114L4.38754 2.80199ZM3.59612 2.8962C3.47716 2.92186 3.35322 2.96388 3.25302 3.0405C3.14134 3.1259 3.06055 3.25532 3.06055 3.41797H3.66055C3.66055 3.43816 3.65544 3.46191 3.64354 3.48406C3.63232 3.50496 3.62012 3.51511 3.61749 3.51712C3.61551 3.51863 3.62104 3.51403 3.63974 3.50657C3.65812 3.49925 3.68506 3.49081 3.72263 3.48271L3.59612 2.8962ZM3.06055 3.41797C3.06055 3.49528 3.07428 3.57325 3.09411 3.64761L3.67385 3.49301C3.66243 3.45018 3.66055 3.42659 3.66055 3.41797H3.06055ZM3.09411 3.64761C3.11046 3.70891 3.12592 3.76238 3.14039 3.80581L3.7096 3.61607C3.70064 3.58918 3.68876 3.5489 3.67385 3.49301L3.09411 3.64761ZM3.14434 3.8169C3.28868 4.19922 3.52291 4.82383 3.84712 5.691L4.40913 5.48088C4.0849 4.61367 3.85038 3.98828 3.70566 3.60497L3.14434 3.8169ZM3.84728 5.69141C4.17143 6.55451 4.63231 7.78484 5.22995 9.38245L5.79192 9.17223C5.19425 7.57454 4.73326 6.34393 4.40897 5.48046L3.84728 5.69141ZM5.78843 9.39134C6.08606 8.66686 6.42845 7.81184 6.81555 6.82649L6.2571 6.6071C5.87077 7.5905 5.52956 8.44252 5.23344 9.16335L5.78843 9.39134ZM6.81555 6.82649C7.20214 5.84246 7.46334 5.16306 7.59774 4.79149L7.03351 4.58741C6.90228 4.95022 6.64395 5.62239 6.2571 6.6071L6.81555 6.82649ZM7.59765 4.79173C7.72548 4.43924 7.81072 4.1654 7.83527 3.9936L7.2413 3.90875C7.22678 4.01039 7.16358 4.22873 7.0336 4.58718L7.59765 4.79173ZM7.83397 4.00186C7.85876 3.85724 7.87344 3.72719 7.87344 3.61719H7.27344C7.27344 3.67906 7.26468 3.77167 7.24259 3.90048L7.83397 4.00186ZM7.87344 3.61719C7.87344 3.41753 7.77449 3.25736 7.62476 3.15041L7.27602 3.63865C7.28742 3.6468 7.28495 3.64802 7.2801 3.63925C7.2778 3.63509 7.27591 3.63031 7.2747 3.62549C7.27352 3.62077 7.27344 3.61773 7.27344 3.61719H7.87344ZM7.6378 3.16027C7.52255 3.06807 7.38103 3.00094 7.22633 2.95089L7.04164 3.52176C7.15256 3.55765 7.22198 3.59599 7.26298 3.62879L7.6378 3.16027ZM7.22099 2.94922C7.07794 2.90587 6.93259 2.87333 6.78505 2.85163L6.69776 3.44525C6.81585 3.46261 6.93222 3.48866 7.04698 3.52344L7.22099 2.94922ZM6.78505 2.85163C6.64612 2.8312 6.50534 2.81488 6.36273 2.80266L6.31149 3.40047C6.44231 3.41168 6.57106 3.42661 6.69776 3.44525L6.78505 2.85163ZM6.63711 3.10156V2.68555H6.03711V3.10156H6.63711ZM6.33711 2.98555H9.43086V2.38555H6.33711V2.98555ZM9.13086 2.68555V3.10156H9.73086V2.68555H9.13086ZM15.1977 11V11.3H15.4977V11H15.1977ZM11.4535 11H11.1535V11.3H11.4535V11ZM11.4535 10.584L11.4314 10.2848L11.1535 10.3054V10.584H11.4535ZM12.3324 10.4785L12.4392 10.7589L12.4424 10.7576L12.3324 10.4785ZM12.6137 10.2734L12.8616 10.4425L12.865 10.4373L12.6137 10.2734ZM12.6371 3.54102L12.3644 3.66603L12.3665 3.67045L12.6371 3.54102ZM12.3324 3.30664L12.221 3.58519L12.2234 3.58611L12.3324 3.30664ZM11.8871 3.17773L11.8158 3.46925L11.8234 3.47089L11.8871 3.17773ZM11.4535 3.10156H11.1535V3.38159L11.4329 3.40085L11.4535 3.10156ZM11.4535 2.68555V2.38555H11.1535V2.68555H11.4535ZM15.1977 2.68555H15.4977V2.38555H15.1977V2.68555ZM15.1977 3.10156L15.2073 3.40141L15.4977 3.39204V3.10156H15.1977ZM14.7641 3.14844L14.8055 3.44564L14.8123 3.44454L14.7641 3.14844ZM14.3246 3.24219L14.2351 2.95584L14.2343 2.95611L14.3246 3.24219ZM14.0316 10.1855L13.7672 10.3279L13.7744 10.3399L14.0316 10.1855ZM14.3246 10.4199L14.2063 10.6959L14.2178 10.7003L14.3246 10.4199ZM14.723 10.5254L14.6606 10.8189L14.6678 10.8203L14.723 10.5254ZM15.1977 10.584H15.4977V10.2929L15.2067 10.2841L15.1977 10.584ZM15.1977 10.7H11.4535V11.3H15.1977V10.7ZM11.7535 11V10.584H11.1535V11H11.7535ZM11.4757 10.8832C11.5818 10.8753 11.7347 10.8635 11.934 10.8479L11.8871 10.2497C11.688 10.2654 11.5362 10.277 11.4314 10.2848L11.4757 10.8832ZM11.934 10.8479C12.1348 10.8322 12.3134 10.8068 12.4392 10.7589L12.2256 10.1982C12.1874 10.2127 12.0847 10.2342 11.8871 10.2497L11.934 10.8479ZM12.4424 10.7576C12.609 10.692 12.7595 10.5921 12.8615 10.4424L12.3658 10.1044C12.3507 10.1266 12.3137 10.1635 12.2225 10.1994L12.4424 10.7576ZM12.865 10.4373C12.9667 10.2812 13.0016 10.0936 13.0016 9.9043H12.4016C12.4016 10.0275 12.3778 10.086 12.3624 10.1096L12.865 10.4373ZM13.0016 9.9043V3.88086H12.4016V9.9043H13.0016ZM13.0016 3.88086C13.0016 3.7151 12.9759 3.55398 12.9077 3.41158L12.3665 3.67045C12.3843 3.70774 12.4016 3.77318 12.4016 3.88086H13.0016ZM12.9098 3.41602C12.8186 3.21692 12.6286 3.10021 12.4415 3.02717L12.2234 3.58611C12.2854 3.61032 12.3237 3.63291 12.3458 3.6499C12.3671 3.66631 12.3676 3.67296 12.3644 3.66601L12.9098 3.41602ZM12.4438 3.0281C12.3059 2.97294 12.1402 2.92574 11.9508 2.88458L11.8234 3.47089C11.9934 3.50786 12.1245 3.54659 12.221 3.58518L12.4438 3.0281ZM11.9583 2.88631C11.7745 2.84137 11.6114 2.81174 11.4742 2.80227L11.4329 3.40085C11.5221 3.40701 11.6482 3.42816 11.8159 3.46915L11.9583 2.88631ZM11.7535 3.10156V2.68555H11.1535V3.10156H11.7535ZM11.4535 2.98555H15.1977V2.38555H11.4535V2.98555ZM14.8977 2.68555V3.10156H15.4977V2.68555H14.8977ZM15.188 2.80172C15.05 2.80617 14.8919 2.82368 14.7159 2.85234L14.8123 3.44454C14.9721 3.41851 15.1031 3.40477 15.2073 3.40141L15.188 2.80172ZM14.7226 2.85132C14.5428 2.8764 14.3796 2.91069 14.2351 2.95584L14.4141 3.52853C14.5196 3.49556 14.6494 3.46735 14.8055 3.44556L14.7226 2.85132ZM14.2343 2.95611C14.0341 3.01933 13.8529 3.13822 13.7555 3.34056L14.2961 3.60085C14.3002 3.59225 14.3183 3.5588 14.4149 3.52826L14.2343 2.95611ZM13.7555 3.34056C13.6832 3.49059 13.6496 3.65292 13.6496 3.82227H14.2496C14.2496 3.7338 14.2668 3.66175 14.2961 3.60085L13.7555 3.34056ZM13.6496 3.82227V9.83984H14.2496V3.82227H13.6496ZM13.6496 9.83984C13.6496 10.0125 13.6866 10.1776 13.7675 10.3278L14.2958 10.0433C14.2673 9.99041 14.2496 9.92503 14.2496 9.83984H13.6496ZM13.7744 10.3399C13.8741 10.5061 14.0294 10.6198 14.2064 10.6957L14.4428 10.1442C14.3464 10.1029 14.3064 10.0603 14.2889 10.0312L13.7744 10.3399ZM14.2178 10.7003C14.3229 10.7403 14.4749 10.7793 14.6606 10.8188L14.7855 10.232C14.604 10.1933 14.4904 10.1621 14.4314 10.1396L14.2178 10.7003ZM14.6678 10.8203C14.864 10.857 15.0387 10.8793 15.1886 10.8838L15.2067 10.2841C15.0988 10.2809 14.9571 10.264 14.7783 10.2305L14.6678 10.8203ZM14.8977 10.584V11H15.4977V10.584H14.8977ZM25.0309 8.55078L25.3302 8.57012L25.3509 8.25078H25.0309V8.55078ZM24.8727 11V11.3H25.1539L25.172 11.0193L24.8727 11ZM17.9703 11H17.6703V11.3H17.9703V11ZM17.9703 10.584L17.9504 10.2846L17.6703 10.3033V10.584H17.9703ZM18.4391 10.5371L18.4748 10.835L18.4807 10.8342L18.4391 10.5371ZM18.8199 10.4551L18.9468 10.7269L18.9473 10.7267L18.8199 10.4551ZM19.0777 10.2266L18.8138 10.0836L18.8094 10.0924L19.0777 10.2266ZM19.0895 3.55273L18.8131 3.66964L18.8149 3.67356L19.0895 3.55273ZM18.8199 3.30664L18.6898 3.57699L18.6952 3.57948L18.8199 3.30664ZM18.3922 3.17188L18.3271 3.46473L18.3285 3.46503L18.3922 3.17188ZM17.9703 3.10156H17.6703V3.38016L17.9482 3.40074L17.9703 3.10156ZM17.9703 2.68555V2.38555H17.6703V2.68555H17.9703ZM24.4039 2.68555H24.7039V2.38555H24.4039V2.68555ZM24.4039 4.68945V4.98945H24.7039V4.68945H24.4039ZM23.9645 4.68945L23.6743 4.7658L23.7332 4.98945H23.9645V4.68945ZM23.4547 3.74609L23.2167 3.92875L23.2191 3.93181L23.4547 3.74609ZM22.7164 3.19531L22.7561 2.89794L22.7548 2.89778L22.7164 3.19531ZM20.402 3.14844V2.84844H20.102V3.14844H20.402ZM20.402 6.45312H20.102V6.75313H20.402V6.45312ZM21.9957 6.37109L22.1071 6.64967L22.1111 6.64802L21.9957 6.37109ZM22.3648 6.08398L22.5998 6.27059L22.6039 6.2653L22.3648 6.08398ZM22.5816 5.63281L22.2964 5.53968L22.2953 5.54333L22.5816 5.63281ZM22.7047 5.09375V4.79375H22.4375L22.4067 5.0591L22.7047 5.09375ZM23.1441 5.09375H23.4441V4.79375H23.1441V5.09375ZM23.1441 8.3457V8.6457H23.4441V8.3457H23.1441ZM22.7047 8.3457L22.4057 8.37062L22.4286 8.6457H22.7047V8.3457ZM22.5758 7.75391L22.2896 7.84401L22.2917 7.85038L22.5758 7.75391ZM22.3648 7.29688L22.6001 7.11066L22.5997 7.1102L22.3648 7.29688ZM21.9488 6.99805L21.8606 7.28479L21.8626 7.28539L21.9488 6.99805ZM20.402 6.92773V6.62773H20.102V6.92773H20.402ZM21.0758 10.4902L21.0361 10.7877L21.0427 10.7884L21.0758 10.4902ZM22.8687 10.4961L22.8373 10.1977L22.8365 10.1978L22.8687 10.4961ZM23.3258 10.4141L23.3986 10.7051L23.4035 10.7038L23.3258 10.4141ZM23.6656 10.2441L23.449 10.0366L23.4475 10.0382L23.6656 10.2441ZM24.2281 9.39453L23.962 9.25604L23.9615 9.25708L24.2281 9.39453ZM24.609 8.55078V8.25078H24.3867L24.322 8.46343L24.609 8.55078ZM24.7315 8.53144L24.5733 10.9807L25.172 11.0193L25.3302 8.57012L24.7315 8.53144ZM24.8727 10.7H17.9703V11.3H24.8727V10.7ZM18.2703 11V10.584H17.6703V11H18.2703ZM17.9903 10.8833C18.1151 10.875 18.2772 10.8587 18.4748 10.835L18.4033 10.2392C18.2103 10.2624 18.0599 10.2773 17.9504 10.2846L17.9903 10.8833ZM18.4807 10.8342C18.5823 10.82 18.6707 10.8051 18.7439 10.7894C18.812 10.7747 18.8857 10.7555 18.9468 10.7269L18.6931 10.1832C18.6956 10.182 18.6764 10.1901 18.6176 10.2028C18.5639 10.2144 18.4912 10.2269 18.3975 10.24L18.4807 10.8342ZM18.9473 10.7267C19.1139 10.6486 19.2606 10.5316 19.3461 10.3607L18.8094 10.0924C18.8011 10.109 18.7759 10.1444 18.6926 10.1834L18.9473 10.7267ZM19.3415 10.3694C19.423 10.219 19.4539 10.0466 19.4539 9.86914H18.8539C18.8539 9.98074 18.834 10.0466 18.8139 10.0837L19.3415 10.3694ZM19.4539 9.86914V3.89258H18.8539V9.86914H19.4539ZM19.4539 3.89258C19.4539 3.73056 19.4269 3.57471 19.364 3.43191L18.8149 3.67356C18.838 3.72607 18.8539 3.79679 18.8539 3.89258H19.4539ZM19.3657 3.43584C19.2843 3.2434 19.1245 3.11603 18.9446 3.0338L18.6952 3.57948C18.7887 3.62225 18.8086 3.65894 18.8132 3.66963L19.3657 3.43584ZM18.9501 3.03634C18.815 2.9713 18.6471 2.92029 18.4559 2.87872L18.3285 3.46503C18.4966 3.50159 18.6139 3.54042 18.6898 3.57694L18.9501 3.03634ZM18.4573 2.87902C18.2757 2.83867 18.1189 2.81175 17.9925 2.80238L17.9482 3.40074C18.0326 3.407 18.1571 3.42696 18.3271 3.46473L18.4573 2.87902ZM18.2703 3.10156V2.68555H17.6703V3.10156H18.2703ZM17.9703 2.98555H24.4039V2.38555H17.9703V2.98555ZM24.1039 2.68555V4.68945H24.7039V2.68555H24.1039ZM24.4039 4.38945H23.9645V4.98945H24.4039V4.38945ZM24.2546 4.61311C24.1628 4.26442 23.9685 3.91332 23.6903 3.56038L23.2191 3.93181C23.4643 4.24293 23.6098 4.52074 23.6743 4.7658L24.2546 4.61311ZM23.6927 3.56345C23.4215 3.2101 23.112 2.9454 22.7561 2.89794L22.6768 3.49268C22.7896 3.50773 22.9722 3.61021 23.2167 3.92874L23.6927 3.56345ZM22.7548 2.89778C22.6232 2.8808 22.4701 2.86854 22.2968 2.86048L22.2689 3.45983C22.4315 3.46739 22.5674 3.47857 22.678 3.49285L22.7548 2.89778ZM22.2968 2.86048C22.1231 2.8524 21.9269 2.84844 21.7086 2.84844V3.44844C21.92 3.44844 22.1066 3.45229 22.2689 3.45983L22.2968 2.86048ZM21.7086 2.84844H20.402V3.44844H21.7086V2.84844ZM20.102 3.14844V6.45312H20.702V3.14844H20.102ZM20.402 6.75313H21.3395V6.15312H20.402V6.75313ZM21.3395 6.75313C21.647 6.75313 21.9143 6.72676 22.1071 6.64964L21.8843 6.09255C21.8036 6.12481 21.6335 6.15312 21.3395 6.15312V6.75313ZM22.1111 6.64802C22.3037 6.56776 22.4664 6.43852 22.5998 6.27055L22.1299 5.89742C22.0524 5.99508 21.969 6.05724 21.8803 6.09417L22.1111 6.64802ZM22.6039 6.2653C22.7171 6.11604 22.8027 5.93119 22.868 5.72229L22.2953 5.54333C22.2434 5.70943 22.1845 5.82536 22.1258 5.90267L22.6039 6.2653ZM22.8668 5.72593C22.9344 5.51899 22.9804 5.31957 23.0027 5.1284L22.4067 5.0591C22.3899 5.20387 22.3539 5.36382 22.2965 5.53969L22.8668 5.72593ZM22.7047 5.39375H23.1441V4.79375H22.7047V5.39375ZM22.8441 5.09375V8.3457H23.4441V5.09375H22.8441ZM23.1441 8.0457H22.7047V8.6457H23.1441V8.0457ZM23.0037 8.32079C22.9857 8.10536 22.9368 7.88398 22.8598 7.65743L22.2917 7.85038C22.3554 8.0379 22.3924 8.21105 22.4057 8.37062L23.0037 8.32079ZM22.8619 7.66382C22.7922 7.44247 22.7088 7.24798 22.6001 7.11066L22.1296 7.48309C22.1694 7.53327 22.2265 7.64347 22.2896 7.84399L22.8619 7.66382ZM22.5997 7.1102C22.448 6.91936 22.2605 6.77835 22.035 6.7107L21.8626 7.28539C21.9496 7.31149 22.0395 7.3697 22.13 7.48355L22.5997 7.1102ZM22.0371 6.71131C21.8444 6.65202 21.6078 6.62773 21.3395 6.62773V7.22773C21.5789 7.22773 21.7486 7.25032 21.8606 7.28478L22.0371 6.71131ZM21.3395 6.62773H20.402V7.22773H21.3395V6.62773ZM20.102 6.92773V9.42383H20.702V6.92773H20.102ZM20.102 9.42383C20.102 9.6839 20.1199 9.90839 20.1632 10.0865L20.7462 9.94472C20.7192 9.8338 20.702 9.66375 20.702 9.42383H20.102ZM20.1632 10.0865C20.2119 10.2867 20.3139 10.4626 20.4828 10.586L20.8368 10.1015C20.8025 10.0765 20.7678 10.0336 20.7462 9.94472L20.1632 10.0865ZM20.4828 10.586C20.638 10.6994 20.8299 10.7601 21.0361 10.7876L21.1154 10.1929C20.9701 10.1735 20.8847 10.1365 20.8368 10.1015L20.4828 10.586ZM21.0427 10.7884C21.235 10.8098 21.498 10.8195 21.8258 10.8195V10.2195C21.5051 10.2195 21.2682 10.2098 21.1089 10.1921L21.0427 10.7884ZM21.8258 10.8195C21.826 10.8195 21.8263 10.8195 21.8265 10.8195C21.8268 10.8195 21.827 10.8195 21.8273 10.8195C21.8275 10.8195 21.8278 10.8195 21.8281 10.8195C21.8283 10.8195 21.8286 10.8195 21.8288 10.8195C21.8291 10.8195 21.8293 10.8195 21.8296 10.8195C21.8298 10.8195 21.8301 10.8195 21.8303 10.8195C21.8306 10.8195 21.8308 10.8195 21.8311 10.8195C21.8313 10.8195 21.8316 10.8195 21.8319 10.8195C21.8321 10.8195 21.8324 10.8195 21.8326 10.8195C21.8329 10.8195 21.8331 10.8195 21.8334 10.8195C21.8336 10.8195 21.8339 10.8195 21.8341 10.8195C21.8344 10.8195 21.8347 10.8195 21.8349 10.8195C21.8352 10.8195 21.8354 10.8195 21.8357 10.8195C21.8359 10.8195 21.8362 10.8195 21.8364 10.8195C21.8367 10.8195 21.837 10.8195 21.8372 10.8195C21.8375 10.8195 21.8377 10.8195 21.838 10.8195C21.8382 10.8195 21.8385 10.8195 21.8388 10.8195C21.839 10.8195 21.8393 10.8195 21.8395 10.8195C21.8398 10.8195 21.84 10.8195 21.8403 10.8195C21.8406 10.8195 21.8408 10.8195 21.8411 10.8195C21.8413 10.8195 21.8416 10.8195 21.8419 10.8195C21.8421 10.8195 21.8424 10.8195 21.8426 10.8195C21.8429 10.8195 21.8431 10.8195 21.8434 10.8195C21.8437 10.8195 21.8439 10.8195 21.8442 10.8195C21.8444 10.8195 21.8447 10.8195 21.845 10.8195C21.8452 10.8195 21.8455 10.8195 21.8457 10.8195C21.846 10.8195 21.8463 10.8195 21.8465 10.8195C21.8468 10.8195 21.847 10.8195 21.8473 10.8195C21.8476 10.8195 21.8478 10.8195 21.8481 10.8195C21.8483 10.8195 21.8486 10.8195 21.8489 10.8195C21.8491 10.8195 21.8494 10.8195 21.8496 10.8195C21.8499 10.8195 21.8502 10.8195 21.8504 10.8195C21.8507 10.8195 21.851 10.8195 21.8512 10.8195C21.8515 10.8195 21.8517 10.8195 21.852 10.8195C21.8523 10.8195 21.8525 10.8195 21.8528 10.8195C21.8531 10.8195 21.8533 10.8195 21.8536 10.8195C21.8538 10.8195 21.8541 10.8195 21.8544 10.8195C21.8546 10.8195 21.8549 10.8195 21.8552 10.8195C21.8554 10.8195 21.8557 10.8195 21.856 10.8195C21.8562 10.8195 21.8565 10.8195 21.8567 10.8195C21.857 10.8195 21.8573 10.8195 21.8575 10.8195C21.8578 10.8195 21.8581 10.8195 21.8583 10.8195C21.8586 10.8195 21.8589 10.8195 21.8591 10.8195C21.8594 10.8195 21.8597 10.8195 21.8599 10.8195C21.8602 10.8195 21.8605 10.8195 21.8607 10.8195C21.861 10.8195 21.8613 10.8195 21.8615 10.8195C21.8618 10.8195 21.8621 10.8195 21.8623 10.8195C21.8626 10.8195 21.8629 10.8195 21.8631 10.8195C21.8634 10.8195 21.8637 10.8195 21.8639 10.8195C21.8642 10.8195 21.8645 10.8195 21.8647 10.8195C21.865 10.8195 21.8653 10.8195 21.8655 10.8195C21.8658 10.8195 21.8661 10.8195 21.8663 10.8195C21.8666 10.8195 21.8669 10.8195 21.8671 10.8195C21.8674 10.8195 21.8677 10.8195 21.8679 10.8195C21.8682 10.8195 21.8685 10.8195 21.8687 10.8195C21.869 10.8195 21.8693 10.8195 21.8696 10.8195C21.8698 10.8195 21.8701 10.8195 21.8704 10.8195C21.8706 10.8195 21.8709 10.8195 21.8712 10.8195C21.8714 10.8195 21.8717 10.8195 21.872 10.8195C21.8722 10.8195 21.8725 10.8195 21.8728 10.8195C21.8731 10.8195 21.8733 10.8195 21.8736 10.8195C21.8739 10.8195 21.8741 10.8195 21.8744 10.8195C21.8747 10.8195 21.875 10.8195 21.8752 10.8195C21.8755 10.8195 21.8758 10.8195 21.876 10.8195C21.8763 10.8195 21.8766 10.8195 21.8769 10.8195C21.8771 10.8195 21.8774 10.8195 21.8777 10.8195C21.8779 10.8195 21.8782 10.8195 21.8785 10.8195C21.8788 10.8195 21.879 10.8195 21.8793 10.8195C21.8796 10.8195 21.8799 10.8195 21.8801 10.8195C21.8804 10.8195 21.8807 10.8195 21.881 10.8195C21.8812 10.8195 21.8815 10.8195 21.8818 10.8195C21.882 10.8195 21.8823 10.8195 21.8826 10.8195C21.8829 10.8195 21.8831 10.8195 21.8834 10.8195C21.8837 10.8195 21.884 10.8195 21.8842 10.8195C21.8845 10.8195 21.8848 10.8195 21.8851 10.8195C21.8853 10.8195 21.8856 10.8195 21.8859 10.8195C21.8862 10.8195 21.8864 10.8195 21.8867 10.8195C21.887 10.8195 21.8873 10.8195 21.8876 10.8195C21.8878 10.8195 21.8881 10.8195 21.8884 10.8195C21.8887 10.8195 21.8889 10.8195 21.8892 10.8195C21.8895 10.8195 21.8898 10.8195 21.89 10.8195C21.8903 10.8195 21.8906 10.8195 21.8909 10.8195C21.8911 10.8195 21.8914 10.8195 21.8917 10.8195C21.892 10.8195 21.8923 10.8195 21.8925 10.8195C21.8928 10.8195 21.8931 10.8195 21.8934 10.8195C21.8937 10.8195 21.8939 10.8195 21.8942 10.8195C21.8945 10.8195 21.8948 10.8195 21.895 10.8195C21.8953 10.8195 21.8956 10.8195 21.8959 10.8195C21.8962 10.8195 21.8964 10.8195 21.8967 10.8195C21.897 10.8195 21.8973 10.8195 21.8976 10.8195C21.8978 10.8195 21.8981 10.8195 21.8984 10.8195C21.8987 10.8195 21.899 10.8195 21.8992 10.8195C21.8995 10.8195 21.8998 10.8195 21.9001 10.8195C21.9004 10.8195 21.9006 10.8195 21.9009 10.8195C21.9012 10.8195 21.9015 10.8195 21.9018 10.8195C21.9021 10.8195 21.9023 10.8195 21.9026 10.8195C21.9029 10.8195 21.9032 10.8195 21.9035 10.8195C21.9037 10.8195 21.904 10.8195 21.9043 10.8195C21.9046 10.8195 21.9049 10.8195 21.9052 10.8195C21.9054 10.8195 21.9057 10.8195 21.906 10.8195C21.9063 10.8195 21.9066 10.8195 21.9069 10.8195C21.9071 10.8195 21.9074 10.8195 21.9077 10.8195C21.908 10.8195 21.9083 10.8195 21.9086 10.8195C21.9088 10.8195 21.9091 10.8195 21.9094 10.8195C21.9097 10.8195 21.91 10.8195 21.9103 10.8195C21.9105 10.8195 21.9108 10.8195 21.9111 10.8195C21.9114 10.8195 21.9117 10.8195 21.912 10.8195C21.9123 10.8195 21.9125 10.8195 21.9128 10.8195C21.9131 10.8195 21.9134 10.8195 21.9137 10.8195C21.914 10.8195 21.9143 10.8195 21.9145 10.8195C21.9148 10.8195 21.9151 10.8195 21.9154 10.8195C21.9157 10.8195 21.916 10.8195 21.9163 10.8195C21.9165 10.8195 21.9168 10.8195 21.9171 10.8195C21.9174 10.8195 21.9177 10.8195 21.918 10.8195C21.9183 10.8195 21.9186 10.8195 21.9188 10.8195C21.9191 10.8195 21.9194 10.8195 21.9197 10.8195C21.92 10.8195 21.9203 10.8195 21.9206 10.8195C21.9209 10.8195 21.9212 10.8195 21.9214 10.8195C21.9217 10.8195 21.922 10.8195 21.9223 10.8195C21.9226 10.8195 21.9229 10.8195 21.9232 10.8195C21.9235 10.8195 21.9238 10.8195 21.924 10.8195C21.9243 10.8195 21.9246 10.8195 21.9249 10.8195C21.9252 10.8195 21.9255 10.8195 21.9258 10.8195C21.9261 10.8195 21.9264 10.8195 21.9267 10.8195C21.9269 10.8195 21.9272 10.8195 21.9275 10.8195C21.9278 10.8195 21.9281 10.8195 21.9284 10.8195C21.9287 10.8195 21.929 10.8195 21.9293 10.8195C21.9296 10.8195 21.9299 10.8195 21.9302 10.8195C21.9304 10.8195 21.9307 10.8195 21.931 10.8195C21.9313 10.8195 21.9316 10.8195 21.9319 10.8195C21.9322 10.8195 21.9325 10.8195 21.9328 10.8195C21.9331 10.8195 21.9334 10.8195 21.9337 10.8195C21.934 10.8195 21.9342 10.8195 21.9345 10.8195C21.9348 10.8195 21.9351 10.8195 21.9354 10.8195C21.9357 10.8195 21.936 10.8195 21.9363 10.8195C21.9366 10.8195 21.9369 10.8195 21.9372 10.8195C21.9375 10.8195 21.9378 10.8195 21.9381 10.8195C21.9384 10.8195 21.9387 10.8195 21.939 10.8195C21.9392 10.8195 21.9395 10.8195 21.9398 10.8195C21.9401 10.8195 21.9404 10.8195 21.9407 10.8195C21.941 10.8195 21.9413 10.8195 21.9416 10.8195C21.9419 10.8195 21.9422 10.8195 21.9425 10.8195C21.9428 10.8195 21.9431 10.8195 21.9434 10.8195C21.9437 10.8195 21.944 10.8195 21.9443 10.8195C21.9446 10.8195 21.9449 10.8195 21.9452 10.8195C21.9455 10.8195 21.9458 10.8195 21.9461 10.8195C21.9464 10.8195 21.9467 10.8195 21.947 10.8195C21.9473 10.8195 21.9475 10.8195 21.9478 10.8195C21.9481 10.8195 21.9484 10.8195 21.9487 10.8195C21.949 10.8195 21.9493 10.8195 21.9496 10.8195C21.9499 10.8195 21.9502 10.8195 21.9505 10.8195C21.9508 10.8195 21.9511 10.8195 21.9514 10.8195C21.9517 10.8195 21.952 10.8195 21.9523 10.8195C21.9526 10.8195 21.9529 10.8195 21.9532 10.8195C21.9535 10.8195 21.9538 10.8195 21.9541 10.8195C21.9544 10.8195 21.9547 10.8195 21.955 10.8195C21.9553 10.8195 21.9556 10.8195 21.9559 10.8195C21.9562 10.8195 21.9565 10.8195 21.9568 10.8195C21.9571 10.8195 21.9574 10.8195 21.9577 10.8195C21.958 10.8195 21.9583 10.8195 21.9586 10.8195C21.9589 10.8195 21.9593 10.8195 21.9596 10.8195C21.9599 10.8195 21.9602 10.8195 21.9605 10.8195C21.9608 10.8195 21.9611 10.8195 21.9614 10.8195C21.9617 10.8195 21.962 10.8195 21.9623 10.8195C21.9626 10.8195 21.9629 10.8195 21.9632 10.8195C21.9635 10.8195 21.9638 10.8195 21.9641 10.8195C21.9644 10.8195 21.9647 10.8195 21.965 10.8195C21.9653 10.8195 21.9656 10.8195 21.9659 10.8195C21.9662 10.8195 21.9665 10.8195 21.9668 10.8195C21.9671 10.8195 21.9674 10.8195 21.9677 10.8195C21.9681 10.8195 21.9684 10.8195 21.9687 10.8195C21.969 10.8195 21.9693 10.8195 21.9696 10.8195C21.9699 10.8195 21.9702 10.8195 21.9705 10.8195C21.9708 10.8195 21.9711 10.8195 21.9714 10.8195C21.9717 10.8195 21.972 10.8195 21.9723 10.8195C21.9726 10.8195 21.9729 10.8195 21.9733 10.8195C21.9736 10.8195 21.9739 10.8195 21.9742 10.8195C21.9745 10.8195 21.9748 10.8195 21.9751 10.8195C21.9754 10.8195 21.9757 10.8195 21.976 10.8195C21.9763 10.8195 21.9766 10.8195 21.9769 10.8195C21.9773 10.8195 21.9776 10.8195 21.9779 10.8195C21.9782 10.8195 21.9785 10.8195 21.9788 10.8195C21.9791 10.8195 21.9794 10.8195 21.9797 10.8195C21.98 10.8195 21.9803 10.8195 21.9806 10.8195C21.981 10.8195 21.9813 10.8195 21.9816 10.8195C21.9819 10.8195 21.9822 10.8195 21.9825 10.8195C21.9828 10.8195 21.9831 10.8195 21.9834 10.8195C21.9837 10.8195 21.9841 10.8195 21.9844 10.8195C21.9847 10.8195 21.985 10.8195 21.9853 10.8195C21.9856 10.8195 21.9859 10.8195 21.9862 10.8195C21.9865 10.8195 21.9869 10.8195 21.9872 10.8195C21.9875 10.8195 21.9878 10.8195 21.9881 10.8195C21.9884 10.8195 21.9887 10.8195 21.989 10.8195C21.9894 10.8195 21.9897 10.8195 21.99 10.8195C21.9903 10.8195 21.9906 10.8195 21.9909 10.8195C21.9912 10.8195 21.9915 10.8195 21.9919 10.8195C21.9922 10.8195 21.9925 10.8195 21.9928 10.8195C21.9931 10.8195 21.9934 10.8195 21.9937 10.8195C21.994 10.8195 21.9944 10.8195 21.9947 10.8195C21.995 10.8195 21.9953 10.8195 21.9956 10.8195C21.9959 10.8195 21.9962 10.8195 21.9966 10.8195C21.9969 10.8195 21.9972 10.8195 21.9975 10.8195C21.9978 10.8195 21.9981 10.8195 21.9985 10.8195C21.9988 10.8195 21.9991 10.8195 21.9994 10.8195C21.9997 10.8195 22 10.8195 22.0003 10.8195C22.0007 10.8195 22.001 10.8195 22.0013 10.8195C22.0016 10.8195 22.0019 10.8195 22.0022 10.8195C22.0026 10.8195 22.0029 10.8195 22.0032 10.8195C22.0035 10.8195 22.0038 10.8195 22.0041 10.8195C22.0045 10.8195 22.0048 10.8195 22.0051 10.8195C22.0054 10.8195 22.0057 10.8195 22.006 10.8195C22.0064 10.8195 22.0067 10.8195 22.007 10.8195C22.0073 10.8195 22.0076 10.8195 22.008 10.8195C22.0083 10.8195 22.0086 10.8195 22.0089 10.8195C22.0092 10.8195 22.0096 10.8195 22.0099 10.8195C22.0102 10.8195 22.0105 10.8195 22.0108 10.8195C22.0111 10.8195 22.0115 10.8195 22.0118 10.8195C22.0121 10.8195 22.0124 10.8195 22.0127 10.8195C22.0131 10.8195 22.0134 10.8195 22.0137 10.8195C22.014 10.8195 22.0143 10.8195 22.0147 10.8195C22.015 10.8195 22.0153 10.8195 22.0156 10.8195C22.016 10.8195 22.0163 10.8195 22.0166 10.8195C22.0169 10.8195 22.0172 10.8195 22.0176 10.8195C22.0179 10.8195 22.0182 10.8195 22.0185 10.8195C22.0188 10.8195 22.0192 10.8195 22.0195 10.8195C22.0198 10.8195 22.0201 10.8195 22.0205 10.8195C22.0208 10.8195 22.0211 10.8195 22.0214 10.8195C22.0217 10.8195 22.0221 10.8195 22.0224 10.8195C22.0227 10.8195 22.023 10.8195 22.0234 10.8195C22.0237 10.8195 22.024 10.8195 22.0243 10.8195C22.0247 10.8195 22.025 10.8195 22.0253 10.8195C22.0256 10.8195 22.026 10.8195 22.0263 10.8195C22.0266 10.8195 22.0269 10.8195 22.0273 10.8195C22.0276 10.8195 22.0279 10.8195 22.0282 10.8195C22.0285 10.8195 22.0289 10.8195 22.0292 10.8195C22.0295 10.8195 22.0299 10.8195 22.0302 10.8195C22.0305 10.8195 22.0308 10.8195 22.0312 10.8195C22.0315 10.8195 22.0318 10.8195 22.0321 10.8195C22.0325 10.8195 22.0328 10.8195 22.0331 10.8195C22.0334 10.8195 22.0338 10.8195 22.0341 10.8195C22.0344 10.8195 22.0347 10.8195 22.0351 10.8195C22.0354 10.8195 22.0357 10.8195 22.0361 10.8195C22.0364 10.8195 22.0367 10.8195 22.037 10.8195C22.0374 10.8195 22.0377 10.8195 22.038 10.8195C22.0383 10.8195 22.0387 10.8195 22.039 10.8195C22.0393 10.8195 22.0397 10.8195 22.04 10.8195C22.0403 10.8195 22.0406 10.8195 22.041 10.8195C22.0413 10.8195 22.0416 10.8195 22.042 10.8195C22.0423 10.8195 22.0426 10.8195 22.043 10.8195C22.0433 10.8195 22.0436 10.8195 22.0439 10.8195C22.0443 10.8195 22.0446 10.8195 22.0449 10.8195C22.0453 10.8195 22.0456 10.8195 22.0459 10.8195C22.0463 10.8195 22.0466 10.8195 22.0469 10.8195C22.0473 10.8195 22.0476 10.8195 22.0479 10.8195C22.0482 10.8195 22.0486 10.8195 22.0489 10.8195C22.0492 10.8195 22.0496 10.8195 22.0499 10.8195C22.0502 10.8195 22.0506 10.8195 22.0509 10.8195C22.0512 10.8195 22.0516 10.8195 22.0519 10.8195C22.0522 10.8195 22.0526 10.8195 22.0529 10.8195C22.0532 10.8195 22.0536 10.8195 22.0539 10.8195C22.0542 10.8195 22.0546 10.8195 22.0549 10.8195C22.0552 10.8195 22.0556 10.8195 22.0559 10.8195C22.0562 10.8195 22.0566 10.8195 22.0569 10.8195C22.0572 10.8195 22.0576 10.8195 22.0579 10.8195C22.0582 10.8195 22.0586 10.8195 22.0589 10.8195C22.0592 10.8195 22.0596 10.8195 22.0599 10.8195C22.0602 10.8195 22.0606 10.8195 22.0609 10.8195C22.0612 10.8195 22.0616 10.8195 22.0619 10.8195C22.0623 10.8195 22.0626 10.8195 22.0629 10.8195C22.0633 10.8195 22.0636 10.8195 22.0639 10.8195C22.0643 10.8195 22.0646 10.8195 22.0649 10.8195C22.0653 10.8195 22.0656 10.8195 22.066 10.8195C22.0663 10.8195 22.0666 10.8195 22.067 10.8195C22.0673 10.8195 22.0676 10.8195 22.068 10.8195C22.0683 10.8195 22.0687 10.8195 22.069 10.8195C22.0693 10.8195 22.0697 10.8195 22.07 10.8195C22.0703 10.8195 22.0707 10.8195 22.071 10.8195C22.0714 10.8195 22.0717 10.8195 22.072 10.8195C22.0724 10.8195 22.0727 10.8195 22.073 10.8195C22.0734 10.8195 22.0737 10.8195 22.0741 10.8195C22.0744 10.8195 22.0747 10.8195 22.0751 10.8195C22.0754 10.8195 22.0758 10.8195 22.0761 10.8195C22.0764 10.8195 22.0768 10.8195 22.0771 10.8195C22.0775 10.8195 22.0778 10.8195 22.0781 10.8195C22.0785 10.8195 22.0788 10.8195 22.0792 10.8195C22.0795 10.8195 22.0799 10.8195 22.0802 10.8195C22.0805 10.8195 22.0809 10.8195 22.0812 10.8195C22.0816 10.8195 22.0819 10.8195 22.0822 10.8195C22.0826 10.8195 22.0829 10.8195 22.0833 10.8195C22.0836 10.8195 22.084 10.8195 22.0843 10.8195C22.0846 10.8195 22.085 10.8195 22.0853 10.8195C22.0857 10.8195 22.086 10.8195 22.0864 10.8195C22.0867 10.8195 22.087 10.8195 22.0874 10.8195C22.0877 10.8195 22.0881 10.8195 22.0884 10.8195C22.0888 10.8195 22.0891 10.8195 22.0894 10.8195C22.0898 10.8195 22.0901 10.8195 22.0905 10.8195C22.0908 10.8195 22.0912 10.8195 22.0915 10.8195C22.0919 10.8195 22.0922 10.8195 22.0925 10.8195C22.0929 10.8195 22.0932 10.8195 22.0936 10.8195C22.0939 10.8195 22.0943 10.8195 22.0946 10.8195C22.095 10.8195 22.0953 10.8195 22.0957 10.8195C22.096 10.8195 22.0963 10.8195 22.0967 10.8195C22.097 10.8195 22.0974 10.8195 22.0977 10.8195C22.0981 10.8195 22.0984 10.8195 22.0988 10.8195C22.0991 10.8195 22.0995 10.8195 22.0998 10.8195C22.1002 10.8195 22.1005 10.8195 22.1009 10.8195C22.1012 10.8195 22.1016 10.8195 22.1019 10.8195C22.1022 10.8195 22.1026 10.8195 22.1029 10.8195C22.1033 10.8195 22.1036 10.8195 22.104 10.8195C22.1043 10.8195 22.1047 10.8195 22.105 10.8195C22.1054 10.8195 22.1057 10.8195 22.1061 10.8195C22.1064 10.8195 22.1068 10.8195 22.1071 10.8195C22.1075 10.8195 22.1078 10.8195 22.1082 10.8195C22.1085 10.8195 22.1089 10.8195 22.1092 10.8195C22.1096 10.8195 22.1099 10.8195 22.1103 10.8195C22.1106 10.8195 22.111 10.8195 22.1113 10.8195C22.1117 10.8195 22.112 10.8195 22.1124 10.8195C22.1127 10.8195 22.1131 10.8195 22.1134 10.8195C22.1138 10.8195 22.1141 10.8195 22.1145 10.8195C22.1148 10.8195 22.1152 10.8195 22.1155 10.8195C22.1159 10.8195 22.1162 10.8195 22.1166 10.8195C22.117 10.8195 22.1173 10.8195 22.1177 10.8195C22.118 10.8195 22.1184 10.8195 22.1187 10.8195C22.1191 10.8195 22.1194 10.8195 22.1198 10.8195C22.1201 10.8195 22.1205 10.8195 22.1208 10.8195C22.1212 10.8195 22.1215 10.8195 22.1219 10.8195C22.1222 10.8195 22.1226 10.8195 22.123 10.8195C22.1233 10.8195 22.1237 10.8195 22.124 10.8195C22.1244 10.8195 22.1247 10.8195 22.1251 10.8195C22.1254 10.8195 22.1258 10.8195 22.1262 10.8195C22.1265 10.8195 22.1269 10.8195 22.1272 10.8195C22.1276 10.8195 22.1279 10.8195 22.1283 10.8195C22.1286 10.8195 22.129 10.8195 22.1293 10.8195C22.1297 10.8195 22.1301 10.8195 22.1304 10.8195C22.1308 10.8195 22.1311 10.8195 22.1315 10.8195C22.1318 10.8195 22.1322 10.8195 22.1326 10.8195C22.1329 10.8195 22.1333 10.8195 22.1336 10.8195C22.134 10.8195 22.1343 10.8195 22.1347 10.8195C22.1351 10.8195 22.1354 10.8195 22.1358 10.8195C22.1361 10.8195 22.1365 10.8195 22.1368 10.8195C22.1372 10.8195 22.1376 10.8195 22.1379 10.8195C22.1383 10.8195 22.1386 10.8195 22.139 10.8195C22.1394 10.8195 22.1397 10.8195 22.1401 10.8195C22.1404 10.8195 22.1408 10.8195 22.1412 10.8195C22.1415 10.8195 22.1419 10.8195 22.1422 10.8195C22.1426 10.8195 22.143 10.8195 22.1433 10.8195C22.1437 10.8195 22.144 10.8195 22.1444 10.8195C22.1448 10.8195 22.1451 10.8195 22.1455 10.8195C22.1458 10.8195 22.1462 10.8195 22.1466 10.8195C22.1469 10.8195 22.1473 10.8195 22.1476 10.8195C22.148 10.8195 22.1484 10.8195 22.1487 10.8195C22.1491 10.8195 22.1494 10.8195 22.1498 10.8195C22.1502 10.8195 22.1505 10.8195 22.1509 10.8195C22.1513 10.8195 22.1516 10.8195 22.152 10.8195C22.1523 10.8195 22.1527 10.8195 22.1531 10.8195C22.1534 10.8195 22.1538 10.8195 22.1542 10.8195C22.1545 10.8195 22.1549 10.8195 22.1552 10.8195C22.1556 10.8195 22.156 10.8195 22.1563 10.8195C22.1567 10.8195 22.1571 10.8195 22.1574 10.8195C22.1578 10.8195 22.1582 10.8195 22.1585 10.8195C22.1589 10.8195 22.1593 10.8195 22.1596 10.8195C22.16 10.8195 22.1603 10.8195 22.1607 10.8195C22.1611 10.8195 22.1614 10.8195 22.1618 10.8195C22.1622 10.8195 22.1625 10.8195 22.1629 10.8195C22.1633 10.8195 22.1636 10.8195 22.164 10.8195C22.1644 10.8195 22.1647 10.8195 22.1651 10.8195C22.1655 10.8195 22.1658 10.8195 22.1662 10.8195C22.1666 10.8195 22.1669 10.8195 22.1673 10.8195C22.1677 10.8195 22.168 10.8195 22.1684 10.8195C22.1688 10.8195 22.1691 10.8195 22.1695 10.8195C22.1699 10.8195 22.1702 10.8195 22.1706 10.8195C22.171 10.8195 22.1713 10.8195 22.1717 10.8195C22.1721 10.8195 22.1724 10.8195 22.1728 10.8195C22.1732 10.8195 22.1736 10.8195 22.1739 10.8195C22.1743 10.8195 22.1747 10.8195 22.175 10.8195C22.1754 10.8195 22.1758 10.8195 22.1761 10.8195C22.1765 10.8195 22.1769 10.8195 22.1772 10.8195C22.1776 10.8195 22.178 10.8195 22.1784 10.8195C22.1787 10.8195 22.1791 10.8195 22.1795 10.8195C22.1798 10.8195 22.1802 10.8195 22.1806 10.8195C22.1809 10.8195 22.1813 10.8195 22.1817 10.8195C22.1821 10.8195 22.1824 10.8195 22.1828 10.8195C22.1832 10.8195 22.1835 10.8195 22.1839 10.8195C22.1843 10.8195 22.1847 10.8195 22.185 10.8195C22.1854 10.8195 22.1858 10.8195 22.1861 10.8195C22.1865 10.8195 22.1869 10.8195 22.1873 10.8195C22.1876 10.8195 22.188 10.8195 22.1884 10.8195C22.1888 10.8195 22.1891 10.8195 22.1895 10.8195C22.1899 10.8195 22.1903 10.8195 22.1906 10.8195C22.191 10.8195 22.1914 10.8195 22.1917 10.8195C22.1921 10.8195 22.1925 10.8195 22.1929 10.8195C22.1932 10.8195 22.1936 10.8195 22.194 10.8195C22.1944 10.8195 22.1947 10.8195 22.1951 10.8195C22.1955 10.8195 22.1959 10.8195 22.1962 10.8195C22.1966 10.8195 22.197 10.8195 22.1974 10.8195C22.1977 10.8195 22.1981 10.8195 22.1985 10.8195C22.1989 10.8195 22.1992 10.8195 22.1996 10.8195C22.2 10.8195 22.2004 10.8195 22.2007 10.8195C22.2011 10.8195 22.2015 10.8195 22.2019 10.8195C22.2023 10.8195 22.2026 10.8195 22.203 10.8195C22.2034 10.8195 22.2038 10.8195 22.2041 10.8195C22.2045 10.8195 22.2049 10.8195 22.2053 10.8195C22.2056 10.8195 22.206 10.8195 22.2064 10.8195C22.2068 10.8195 22.2072 10.8195 22.2075 10.8195C22.2079 10.8195 22.2083 10.8195 22.2087 10.8195C22.2091 10.8195 22.2094 10.8195 22.2098 10.8195C22.2102 10.8195 22.2106 10.8195 22.2109 10.8195C22.2113 10.8195 22.2117 10.8195 22.2121 10.8195C22.2125 10.8195 22.2128 10.8195 22.2132 10.8195C22.2136 10.8195 22.214 10.8195 22.2144 10.8195C22.2147 10.8195 22.2151 10.8195 22.2155 10.8195C22.2159 10.8195 22.2163 10.8195 22.2166 10.8195C22.217 10.8195 22.2174 10.8195 22.2178 10.8195C22.2182 10.8195 22.2185 10.8195 22.2189 10.8195C22.2193 10.8195 22.2197 10.8195 22.2201 10.8195C22.2205 10.8195 22.2208 10.8195 22.2212 10.8195C22.2216 10.8195 22.222 10.8195 22.2224 10.8195C22.2227 10.8195 22.2231 10.8195 22.2235 10.8195C22.2239 10.8195 22.2243 10.8195 22.2247 10.8195C22.225 10.8195 22.2254 10.8195 22.2258 10.8195C22.2262 10.8195 22.2266 10.8195 22.227 10.8195C22.2273 10.8195 22.2277 10.8195 22.2281 10.8195C22.2285 10.8195 22.2289 10.8195 22.2293 10.8195C22.2296 10.8195 22.23 10.8195 22.2304 10.8195C22.2308 10.8195 22.2312 10.8195 22.2316 10.8195C22.232 10.8195 22.2323 10.8195 22.2327 10.8195C22.2331 10.8195 22.2335 10.8195 22.2339 10.8195C22.2343 10.8195 22.2347 10.8195 22.235 10.8195C22.2354 10.8195 22.2358 10.8195 22.2362 10.8195C22.2366 10.8195 22.237 10.8195 22.2374 10.8195C22.2377 10.8195 22.2381 10.8195 22.2385 10.8195C22.2389 10.8195 22.2393 10.8195 22.2397 10.8195C22.2401 10.8195 22.2404 10.8195 22.2408 10.8195C22.2412 10.8195 22.2416 10.8195 22.242 10.8195C22.2424 10.8195 22.2428 10.8195 22.2432 10.8195C22.2435 10.8195 22.2439 10.8195 22.2443 10.8195C22.2447 10.8195 22.2451 10.8195 22.2455 10.8195C22.2459 10.8195 22.2463 10.8195 22.2467 10.8195C22.247 10.8195 22.2474 10.8195 22.2478 10.8195C22.2482 10.8195 22.2486 10.8195 22.249 10.8195C22.2494 10.8195 22.2498 10.8195 22.2502 10.8195C22.2505 10.8195 22.2509 10.8195 22.2513 10.8195C22.2517 10.8195 22.2521 10.8195 22.2525 10.8195C22.2529 10.8195 22.2533 10.8195 22.2537 10.8195C22.2541 10.8195 22.2545 10.8195 22.2548 10.8195C22.2552 10.8195 22.2556 10.8195 22.256 10.8195C22.2564 10.8195 22.2568 10.8195 22.2572 10.8195C22.2576 10.8195 22.258 10.8195 22.2584 10.8195C22.2588 10.8195 22.2592 10.8195 22.2595 10.8195C22.2599 10.8195 22.2603 10.8195 22.2607 10.8195C22.2611 10.8195 22.2615 10.8195 22.2619 10.8195C22.2623 10.8195 22.2627 10.8195 22.2631 10.8195C22.2635 10.8195 22.2639 10.8195 22.2643 10.8195C22.2647 10.8195 22.265 10.8195 22.2654 10.8195C22.2658 10.8195 22.2662 10.8195 22.2666 10.8195C22.267 10.8195 22.2674 10.8195 22.2678 10.8195C22.2682 10.8195 22.2686 10.8195 22.269 10.8195C22.2694 10.8195 22.2698 10.8195 22.2702 10.8195C22.2706 10.8195 22.271 10.8195 22.2714 10.8195C22.2718 10.8195 22.2722 10.8195 22.2725 10.8195C22.2729 10.8195 22.2733 10.8195 22.2737 10.8195C22.2741 10.8195 22.2745 10.8195 22.2749 10.8195C22.2753 10.8195 22.2757 10.8195 22.2761 10.8195C22.2765 10.8195 22.2769 10.8195 22.2773 10.8195C22.2777 10.8195 22.2781 10.8195 22.2785 10.8195C22.2789 10.8195 22.2793 10.8195 22.2797 10.8195C22.2801 10.8195 22.2805 10.8195 22.2809 10.8195C22.2813 10.8195 22.2817 10.8195 22.2821 10.8195C22.2825 10.8195 22.2829 10.8195 22.2833 10.8195C22.2837 10.8195 22.2841 10.8195 22.2845 10.8195C22.2849 10.8195 22.2853 10.8195 22.2857 10.8195C22.2861 10.8195 22.2865 10.8195 22.2869 10.8195C22.2873 10.8195 22.2877 10.8195 22.2881 10.8195C22.2885 10.8195 22.2889 10.8195 22.2893 10.8195C22.2897 10.8195 22.2901 10.8195 22.2905 10.8195C22.2909 10.8195 22.2913 10.8195 22.2917 10.8195C22.2921 10.8195 22.2925 10.8195 22.2929 10.8195C22.2933 10.8195 22.2937 10.8195 22.2941 10.8195C22.2945 10.8195 22.2949 10.8195 22.2953 10.8195C22.2957 10.8195 22.2961 10.8195 22.2965 10.8195C22.2969 10.8195 22.2973 10.8195 22.2977 10.8195C22.2981 10.8195 22.2985 10.8195 22.2989 10.8195C22.2993 10.8195 22.2997 10.8195 22.3001 10.8195C22.3005 10.8195 22.3009 10.8195 22.3013 10.8195C22.3017 10.8195 22.3021 10.8195 22.3025 10.8195C22.3029 10.8195 22.3033 10.8195 22.3037 10.8195C22.3041 10.8195 22.3045 10.8195 22.3049 10.8195C22.3053 10.8195 22.3057 10.8195 22.3062 10.8195C22.3066 10.8195 22.307 10.8195 22.3074 10.8195C22.3078 10.8195 22.3082 10.8195 22.3086 10.8195C22.309 10.8195 22.3094 10.8195 22.3098 10.8195C22.3102 10.8195 22.3106 10.8195 22.311 10.8195C22.3114 10.8195 22.3118 10.8195 22.3122 10.8195C22.3126 10.8195 22.313 10.8195 22.3135 10.8195C22.3139 10.8195 22.3143 10.8195 22.3147 10.8195C22.3151 10.8195 22.3155 10.8195 22.3159 10.8195C22.3163 10.8195 22.3167 10.8195 22.3171 10.8195C22.3175 10.8195 22.3179 10.8195 22.3183 10.8195C22.3187 10.8195 22.3192 10.8195 22.3196 10.8195C22.32 10.8195 22.3204 10.8195 22.3208 10.8195C22.3212 10.8195 22.3216 10.8195 22.322 10.8195C22.3224 10.8195 22.3228 10.8195 22.3232 10.8195C22.3236 10.8195 22.3241 10.8195 22.3245 10.8195C22.3249 10.8195 22.3253 10.8195 22.3257 10.8195C22.3261 10.8195 22.3265 10.8195 22.3269 10.8195C22.3273 10.8195 22.3277 10.8195 22.3281 10.8195C22.3286 10.8195 22.329 10.8195 22.3294 10.8195C22.3298 10.8195 22.3302 10.8195 22.3306 10.8195C22.331 10.8195 22.3314 10.8195 22.3318 10.8195C22.3323 10.8195 22.3327 10.8195 22.3331 10.8195C22.3335 10.8195 22.3339 10.8195 22.3343 10.8195C22.3347 10.8195 22.3351 10.8195 22.3355 10.8195V10.2195C22.3351 10.2195 22.3347 10.2195 22.3343 10.2195C22.3339 10.2195 22.3335 10.2195 22.3331 10.2195C22.3327 10.2195 22.3323 10.2195 22.3318 10.2195C22.3314 10.2195 22.331 10.2195 22.3306 10.2195C22.3302 10.2195 22.3298 10.2195 22.3294 10.2195C22.329 10.2195 22.3286 10.2195 22.3281 10.2195C22.3277 10.2195 22.3273 10.2195 22.3269 10.2195C22.3265 10.2195 22.3261 10.2195 22.3257 10.2195C22.3253 10.2195 22.3249 10.2195 22.3245 10.2195C22.3241 10.2195 22.3236 10.2195 22.3232 10.2195C22.3228 10.2195 22.3224 10.2195 22.322 10.2195C22.3216 10.2195 22.3212 10.2195 22.3208 10.2195C22.3204 10.2195 22.32 10.2195 22.3196 10.2195C22.3192 10.2195 22.3187 10.2195 22.3183 10.2195C22.3179 10.2195 22.3175 10.2195 22.3171 10.2195C22.3167 10.2195 22.3163 10.2195 22.3159 10.2195C22.3155 10.2195 22.3151 10.2195 22.3147 10.2195C22.3143 10.2195 22.3139 10.2195 22.3135 10.2195C22.313 10.2195 22.3126 10.2195 22.3122 10.2195C22.3118 10.2195 22.3114 10.2195 22.311 10.2195C22.3106 10.2195 22.3102 10.2195 22.3098 10.2195C22.3094 10.2195 22.309 10.2195 22.3086 10.2195C22.3082 10.2195 22.3078 10.2195 22.3074 10.2195C22.307 10.2195 22.3066 10.2195 22.3062 10.2195C22.3057 10.2195 22.3053 10.2195 22.3049 10.2195C22.3045 10.2195 22.3041 10.2195 22.3037 10.2195C22.3033 10.2195 22.3029 10.2195 22.3025 10.2195C22.3021 10.2195 22.3017 10.2195 22.3013 10.2195C22.3009 10.2195 22.3005 10.2195 22.3001 10.2195C22.2997 10.2195 22.2993 10.2195 22.2989 10.2195C22.2985 10.2195 22.2981 10.2195 22.2977 10.2195C22.2973 10.2195 22.2969 10.2195 22.2965 10.2195C22.2961 10.2195 22.2957 10.2195 22.2953 10.2195C22.2949 10.2195 22.2945 10.2195 22.2941 10.2195C22.2937 10.2195 22.2933 10.2195 22.2929 10.2195C22.2925 10.2195 22.2921 10.2195 22.2917 10.2195C22.2913 10.2195 22.2909 10.2195 22.2905 10.2195C22.2901 10.2195 22.2897 10.2195 22.2893 10.2195C22.2889 10.2195 22.2885 10.2195 22.2881 10.2195C22.2877 10.2195 22.2873 10.2195 22.2869 10.2195C22.2865 10.2195 22.2861 10.2195 22.2857 10.2195C22.2853 10.2195 22.2849 10.2195 22.2845 10.2195C22.2841 10.2195 22.2837 10.2195 22.2833 10.2195C22.2829 10.2195 22.2825 10.2195 22.2821 10.2195C22.2817 10.2195 22.2813 10.2195 22.2809 10.2195C22.2805 10.2195 22.2801 10.2195 22.2797 10.2195C22.2793 10.2195 22.2789 10.2195 22.2785 10.2195C22.2781 10.2195 22.2777 10.2195 22.2773 10.2195C22.2769 10.2195 22.2765 10.2195 22.2761 10.2195C22.2757 10.2195 22.2753 10.2195 22.2749 10.2195C22.2745 10.2195 22.2741 10.2195 22.2737 10.2195C22.2733 10.2195 22.2729 10.2195 22.2725 10.2195C22.2722 10.2195 22.2718 10.2195 22.2714 10.2195C22.271 10.2195 22.2706 10.2195 22.2702 10.2195C22.2698 10.2195 22.2694 10.2195 22.269 10.2195C22.2686 10.2195 22.2682 10.2195 22.2678 10.2195C22.2674 10.2195 22.267 10.2195 22.2666 10.2195C22.2662 10.2195 22.2658 10.2195 22.2654 10.2195C22.265 10.2195 22.2647 10.2195 22.2643 10.2195C22.2639 10.2195 22.2635 10.2195 22.2631 10.2195C22.2627 10.2195 22.2623 10.2195 22.2619 10.2195C22.2615 10.2195 22.2611 10.2195 22.2607 10.2195C22.2603 10.2195 22.2599 10.2195 22.2595 10.2195C22.2592 10.2195 22.2588 10.2195 22.2584 10.2195C22.258 10.2195 22.2576 10.2195 22.2572 10.2195C22.2568 10.2195 22.2564 10.2195 22.256 10.2195C22.2556 10.2195 22.2552 10.2195 22.2548 10.2195C22.2545 10.2195 22.2541 10.2195 22.2537 10.2195C22.2533 10.2195 22.2529 10.2195 22.2525 10.2195C22.2521 10.2195 22.2517 10.2195 22.2513 10.2195C22.2509 10.2195 22.2505 10.2195 22.2502 10.2195C22.2498 10.2195 22.2494 10.2195 22.249 10.2195C22.2486 10.2195 22.2482 10.2195 22.2478 10.2195C22.2474 10.2195 22.247 10.2195 22.2467 10.2195C22.2463 10.2195 22.2459 10.2195 22.2455 10.2195C22.2451 10.2195 22.2447 10.2195 22.2443 10.2195C22.2439 10.2195 22.2435 10.2195 22.2432 10.2195C22.2428 10.2195 22.2424 10.2195 22.242 10.2195C22.2416 10.2195 22.2412 10.2195 22.2408 10.2195C22.2404 10.2195 22.2401 10.2195 22.2397 10.2195C22.2393 10.2195 22.2389 10.2195 22.2385 10.2195C22.2381 10.2195 22.2377 10.2195 22.2374 10.2195C22.237 10.2195 22.2366 10.2195 22.2362 10.2195C22.2358 10.2195 22.2354 10.2195 22.235 10.2195C22.2347 10.2195 22.2343 10.2195 22.2339 10.2195C22.2335 10.2195 22.2331 10.2195 22.2327 10.2195C22.2323 10.2195 22.232 10.2195 22.2316 10.2195C22.2312 10.2195 22.2308 10.2195 22.2304 10.2195C22.23 10.2195 22.2296 10.2195 22.2293 10.2195C22.2289 10.2195 22.2285 10.2195 22.2281 10.2195C22.2277 10.2195 22.2273 10.2195 22.227 10.2195C22.2266 10.2195 22.2262 10.2195 22.2258 10.2195C22.2254 10.2195 22.225 10.2195 22.2247 10.2195C22.2243 10.2195 22.2239 10.2195 22.2235 10.2195C22.2231 10.2195 22.2227 10.2195 22.2224 10.2195C22.222 10.2195 22.2216 10.2195 22.2212 10.2195C22.2208 10.2195 22.2205 10.2195 22.2201 10.2195C22.2197 10.2195 22.2193 10.2195 22.2189 10.2195C22.2185 10.2195 22.2182 10.2195 22.2178 10.2195C22.2174 10.2195 22.217 10.2195 22.2166 10.2195C22.2163 10.2195 22.2159 10.2195 22.2155 10.2195C22.2151 10.2195 22.2147 10.2195 22.2144 10.2195C22.214 10.2195 22.2136 10.2195 22.2132 10.2195C22.2128 10.2195 22.2125 10.2195 22.2121 10.2195C22.2117 10.2195 22.2113 10.2195 22.2109 10.2195C22.2106 10.2195 22.2102 10.2195 22.2098 10.2195C22.2094 10.2195 22.2091 10.2195 22.2087 10.2195C22.2083 10.2195 22.2079 10.2195 22.2075 10.2195C22.2072 10.2195 22.2068 10.2195 22.2064 10.2195C22.206 10.2195 22.2056 10.2195 22.2053 10.2195C22.2049 10.2195 22.2045 10.2195 22.2041 10.2195C22.2038 10.2195 22.2034 10.2195 22.203 10.2195C22.2026 10.2195 22.2023 10.2195 22.2019 10.2195C22.2015 10.2195 22.2011 10.2195 22.2007 10.2195C22.2004 10.2195 22.2 10.2195 22.1996 10.2195C22.1992 10.2195 22.1989 10.2195 22.1985 10.2195C22.1981 10.2195 22.1977 10.2195 22.1974 10.2195C22.197 10.2195 22.1966 10.2195 22.1962 10.2195C22.1959 10.2195 22.1955 10.2195 22.1951 10.2195C22.1947 10.2195 22.1944 10.2195 22.194 10.2195C22.1936 10.2195 22.1932 10.2195 22.1929 10.2195C22.1925 10.2195 22.1921 10.2195 22.1917 10.2195C22.1914 10.2195 22.191 10.2195 22.1906 10.2195C22.1903 10.2195 22.1899 10.2195 22.1895 10.2195C22.1891 10.2195 22.1888 10.2195 22.1884 10.2195C22.188 10.2195 22.1876 10.2195 22.1873 10.2195C22.1869 10.2195 22.1865 10.2195 22.1861 10.2195C22.1858 10.2195 22.1854 10.2195 22.185 10.2195C22.1847 10.2195 22.1843 10.2195 22.1839 10.2195C22.1835 10.2195 22.1832 10.2195 22.1828 10.2195C22.1824 10.2195 22.1821 10.2195 22.1817 10.2195C22.1813 10.2195 22.1809 10.2195 22.1806 10.2195C22.1802 10.2195 22.1798 10.2195 22.1795 10.2195C22.1791 10.2195 22.1787 10.2195 22.1784 10.2195C22.178 10.2195 22.1776 10.2195 22.1772 10.2195C22.1769 10.2195 22.1765 10.2195 22.1761 10.2195C22.1758 10.2195 22.1754 10.2195 22.175 10.2195C22.1747 10.2195 22.1743 10.2195 22.1739 10.2195C22.1736 10.2195 22.1732 10.2195 22.1728 10.2195C22.1724 10.2195 22.1721 10.2195 22.1717 10.2195C22.1713 10.2195 22.171 10.2195 22.1706 10.2195C22.1702 10.2195 22.1699 10.2195 22.1695 10.2195C22.1691 10.2195 22.1688 10.2195 22.1684 10.2195C22.168 10.2195 22.1677 10.2195 22.1673 10.2195C22.1669 10.2195 22.1666 10.2195 22.1662 10.2195C22.1658 10.2195 22.1655 10.2195 22.1651 10.2195C22.1647 10.2195 22.1644 10.2195 22.164 10.2195C22.1636 10.2195 22.1633 10.2195 22.1629 10.2195C22.1625 10.2195 22.1622 10.2195 22.1618 10.2195C22.1614 10.2195 22.1611 10.2195 22.1607 10.2195C22.1603 10.2195 22.16 10.2195 22.1596 10.2195C22.1593 10.2195 22.1589 10.2195 22.1585 10.2195C22.1582 10.2195 22.1578 10.2195 22.1574 10.2195C22.1571 10.2195 22.1567 10.2195 22.1563 10.2195C22.156 10.2195 22.1556 10.2195 22.1552 10.2195C22.1549 10.2195 22.1545 10.2195 22.1542 10.2195C22.1538 10.2195 22.1534 10.2195 22.1531 10.2195C22.1527 10.2195 22.1523 10.2195 22.152 10.2195C22.1516 10.2195 22.1513 10.2195 22.1509 10.2195C22.1505 10.2195 22.1502 10.2195 22.1498 10.2195C22.1494 10.2195 22.1491 10.2195 22.1487 10.2195C22.1484 10.2195 22.148 10.2195 22.1476 10.2195C22.1473 10.2195 22.1469 10.2195 22.1466 10.2195C22.1462 10.2195 22.1458 10.2195 22.1455 10.2195C22.1451 10.2195 22.1448 10.2195 22.1444 10.2195C22.144 10.2195 22.1437 10.2195 22.1433 10.2195C22.143 10.2195 22.1426 10.2195 22.1422 10.2195C22.1419 10.2195 22.1415 10.2195 22.1412 10.2195C22.1408 10.2195 22.1404 10.2195 22.1401 10.2195C22.1397 10.2195 22.1394 10.2195 22.139 10.2195C22.1386 10.2195 22.1383 10.2195 22.1379 10.2195C22.1376 10.2195 22.1372 10.2195 22.1368 10.2195C22.1365 10.2195 22.1361 10.2195 22.1358 10.2195C22.1354 10.2195 22.1351 10.2195 22.1347 10.2195C22.1343 10.2195 22.134 10.2195 22.1336 10.2195C22.1333 10.2195 22.1329 10.2195 22.1326 10.2195C22.1322 10.2195 22.1318 10.2195 22.1315 10.2195C22.1311 10.2195 22.1308 10.2195 22.1304 10.2195C22.1301 10.2195 22.1297 10.2195 22.1293 10.2195C22.129 10.2195 22.1286 10.2195 22.1283 10.2195C22.1279 10.2195 22.1276 10.2195 22.1272 10.2195C22.1269 10.2195 22.1265 10.2195 22.1262 10.2195C22.1258 10.2195 22.1254 10.2195 22.1251 10.2195C22.1247 10.2195 22.1244 10.2195 22.124 10.2195C22.1237 10.2195 22.1233 10.2195 22.123 10.2195C22.1226 10.2195 22.1222 10.2195 22.1219 10.2195C22.1215 10.2195 22.1212 10.2195 22.1208 10.2195C22.1205 10.2195 22.1201 10.2195 22.1198 10.2195C22.1194 10.2195 22.1191 10.2195 22.1187 10.2195C22.1184 10.2195 22.118 10.2195 22.1177 10.2195C22.1173 10.2195 22.117 10.2195 22.1166 10.2195C22.1162 10.2195 22.1159 10.2195 22.1155 10.2195C22.1152 10.2195 22.1148 10.2195 22.1145 10.2195C22.1141 10.2195 22.1138 10.2195 22.1134 10.2195C22.1131 10.2195 22.1127 10.2195 22.1124 10.2195C22.112 10.2195 22.1117 10.2195 22.1113 10.2195C22.111 10.2195 22.1106 10.2195 22.1103 10.2195C22.1099 10.2195 22.1096 10.2195 22.1092 10.2195C22.1089 10.2195 22.1085 10.2195 22.1082 10.2195C22.1078 10.2195 22.1075 10.2195 22.1071 10.2195C22.1068 10.2195 22.1064 10.2195 22.1061 10.2195C22.1057 10.2195 22.1054 10.2195 22.105 10.2195C22.1047 10.2195 22.1043 10.2195 22.104 10.2195C22.1036 10.2195 22.1033 10.2195 22.1029 10.2195C22.1026 10.2195 22.1022 10.2195 22.1019 10.2195C22.1016 10.2195 22.1012 10.2195 22.1009 10.2195C22.1005 10.2195 22.1002 10.2195 22.0998 10.2195C22.0995 10.2195 22.0991 10.2195 22.0988 10.2195C22.0984 10.2195 22.0981 10.2195 22.0977 10.2195C22.0974 10.2195 22.097 10.2195 22.0967 10.2195C22.0963 10.2195 22.096 10.2195 22.0957 10.2195C22.0953 10.2195 22.095 10.2195 22.0946 10.2195C22.0943 10.2195 22.0939 10.2195 22.0936 10.2195C22.0932 10.2195 22.0929 10.2195 22.0925 10.2195C22.0922 10.2195 22.0919 10.2195 22.0915 10.2195C22.0912 10.2195 22.0908 10.2195 22.0905 10.2195C22.0901 10.2195 22.0898 10.2195 22.0894 10.2195C22.0891 10.2195 22.0888 10.2195 22.0884 10.2195C22.0881 10.2195 22.0877 10.2195 22.0874 10.2195C22.087 10.2195 22.0867 10.2195 22.0864 10.2195C22.086 10.2195 22.0857 10.2195 22.0853 10.2195C22.085 10.2195 22.0846 10.2195 22.0843 10.2195C22.084 10.2195 22.0836 10.2195 22.0833 10.2195C22.0829 10.2195 22.0826 10.2195 22.0822 10.2195C22.0819 10.2195 22.0816 10.2195 22.0812 10.2195C22.0809 10.2195 22.0805 10.2195 22.0802 10.2195C22.0799 10.2195 22.0795 10.2195 22.0792 10.2195C22.0788 10.2195 22.0785 10.2195 22.0781 10.2195C22.0778 10.2195 22.0775 10.2195 22.0771 10.2195C22.0768 10.2195 22.0764 10.2195 22.0761 10.2195C22.0758 10.2195 22.0754 10.2195 22.0751 10.2195C22.0747 10.2195 22.0744 10.2195 22.0741 10.2195C22.0737 10.2195 22.0734 10.2195 22.073 10.2195C22.0727 10.2195 22.0724 10.2195 22.072 10.2195C22.0717 10.2195 22.0714 10.2195 22.071 10.2195C22.0707 10.2195 22.0703 10.2195 22.07 10.2195C22.0697 10.2195 22.0693 10.2195 22.069 10.2195C22.0687 10.2195 22.0683 10.2195 22.068 10.2195C22.0676 10.2195 22.0673 10.2195 22.067 10.2195C22.0666 10.2195 22.0663 10.2195 22.066 10.2195C22.0656 10.2195 22.0653 10.2195 22.0649 10.2195C22.0646 10.2195 22.0643 10.2195 22.0639 10.2195C22.0636 10.2195 22.0633 10.2195 22.0629 10.2195C22.0626 10.2195 22.0623 10.2195 22.0619 10.2195C22.0616 10.2195 22.0612 10.2195 22.0609 10.2195C22.0606 10.2195 22.0602 10.2195 22.0599 10.2195C22.0596 10.2195 22.0592 10.2195 22.0589 10.2195C22.0586 10.2195 22.0582 10.2195 22.0579 10.2195C22.0576 10.2195 22.0572 10.2195 22.0569 10.2195C22.0566 10.2195 22.0562 10.2195 22.0559 10.2195C22.0556 10.2195 22.0552 10.2195 22.0549 10.2195C22.0546 10.2195 22.0542 10.2195 22.0539 10.2195C22.0536 10.2195 22.0532 10.2195 22.0529 10.2195C22.0526 10.2195 22.0522 10.2195 22.0519 10.2195C22.0516 10.2195 22.0512 10.2195 22.0509 10.2195C22.0506 10.2195 22.0502 10.2195 22.0499 10.2195C22.0496 10.2195 22.0492 10.2195 22.0489 10.2195C22.0486 10.2195 22.0482 10.2195 22.0479 10.2195C22.0476 10.2195 22.0473 10.2195 22.0469 10.2195C22.0466 10.2195 22.0463 10.2195 22.0459 10.2195C22.0456 10.2195 22.0453 10.2195 22.0449 10.2195C22.0446 10.2195 22.0443 10.2195 22.0439 10.2195C22.0436 10.2195 22.0433 10.2195 22.043 10.2195C22.0426 10.2195 22.0423 10.2195 22.042 10.2195C22.0416 10.2195 22.0413 10.2195 22.041 10.2195C22.0406 10.2195 22.0403 10.2195 22.04 10.2195C22.0397 10.2195 22.0393 10.2195 22.039 10.2195C22.0387 10.2195 22.0383 10.2195 22.038 10.2195C22.0377 10.2195 22.0374 10.2195 22.037 10.2195C22.0367 10.2195 22.0364 10.2195 22.0361 10.2195C22.0357 10.2195 22.0354 10.2195 22.0351 10.2195C22.0347 10.2195 22.0344 10.2195 22.0341 10.2195C22.0338 10.2195 22.0334 10.2195 22.0331 10.2195C22.0328 10.2195 22.0325 10.2195 22.0321 10.2195C22.0318 10.2195 22.0315 10.2195 22.0312 10.2195C22.0308 10.2195 22.0305 10.2195 22.0302 10.2195C22.0299 10.2195 22.0295 10.2195 22.0292 10.2195C22.0289 10.2195 22.0285 10.2195 22.0282 10.2195C22.0279 10.2195 22.0276 10.2195 22.0273 10.2195C22.0269 10.2195 22.0266 10.2195 22.0263 10.2195C22.026 10.2195 22.0256 10.2195 22.0253 10.2195C22.025 10.2195 22.0247 10.2195 22.0243 10.2195C22.024 10.2195 22.0237 10.2195 22.0234 10.2195C22.023 10.2195 22.0227 10.2195 22.0224 10.2195C22.0221 10.2195 22.0217 10.2195 22.0214 10.2195C22.0211 10.2195 22.0208 10.2195 22.0205 10.2195C22.0201 10.2195 22.0198 10.2195 22.0195 10.2195C22.0192 10.2195 22.0188 10.2195 22.0185 10.2195C22.0182 10.2195 22.0179 10.2195 22.0176 10.2195C22.0172 10.2195 22.0169 10.2195 22.0166 10.2195C22.0163 10.2195 22.016 10.2195 22.0156 10.2195C22.0153 10.2195 22.015 10.2195 22.0147 10.2195C22.0143 10.2195 22.014 10.2195 22.0137 10.2195C22.0134 10.2195 22.0131 10.2195 22.0127 10.2195C22.0124 10.2195 22.0121 10.2195 22.0118 10.2195C22.0115 10.2195 22.0111 10.2195 22.0108 10.2195C22.0105 10.2195 22.0102 10.2195 22.0099 10.2195C22.0096 10.2195 22.0092 10.2195 22.0089 10.2195C22.0086 10.2195 22.0083 10.2195 22.008 10.2195C22.0076 10.2195 22.0073 10.2195 22.007 10.2195C22.0067 10.2195 22.0064 10.2195 22.006 10.2195C22.0057 10.2195 22.0054 10.2195 22.0051 10.2195C22.0048 10.2195 22.0045 10.2195 22.0041 10.2195C22.0038 10.2195 22.0035 10.2195 22.0032 10.2195C22.0029 10.2195 22.0026 10.2195 22.0022 10.2195C22.0019 10.2195 22.0016 10.2195 22.0013 10.2195C22.001 10.2195 22.0007 10.2195 22.0003 10.2195C22 10.2195 21.9997 10.2195 21.9994 10.2195C21.9991 10.2195 21.9988 10.2195 21.9985 10.2195C21.9981 10.2195 21.9978 10.2195 21.9975 10.2195C21.9972 10.2195 21.9969 10.2195 21.9966 10.2195C21.9962 10.2195 21.9959 10.2195 21.9956 10.2195C21.9953 10.2195 21.995 10.2195 21.9947 10.2195C21.9944 10.2195 21.994 10.2195 21.9937 10.2195C21.9934 10.2195 21.9931 10.2195 21.9928 10.2195C21.9925 10.2195 21.9922 10.2195 21.9919 10.2195C21.9915 10.2195 21.9912 10.2195 21.9909 10.2195C21.9906 10.2195 21.9903 10.2195 21.99 10.2195C21.9897 10.2195 21.9894 10.2195 21.989 10.2195C21.9887 10.2195 21.9884 10.2195 21.9881 10.2195C21.9878 10.2195 21.9875 10.2195 21.9872 10.2195C21.9869 10.2195 21.9865 10.2195 21.9862 10.2195C21.9859 10.2195 21.9856 10.2195 21.9853 10.2195C21.985 10.2195 21.9847 10.2195 21.9844 10.2195C21.9841 10.2195 21.9837 10.2195 21.9834 10.2195C21.9831 10.2195 21.9828 10.2195 21.9825 10.2195C21.9822 10.2195 21.9819 10.2195 21.9816 10.2195C21.9813 10.2195 21.981 10.2195 21.9806 10.2195C21.9803 10.2195 21.98 10.2195 21.9797 10.2195C21.9794 10.2195 21.9791 10.2195 21.9788 10.2195C21.9785 10.2195 21.9782 10.2195 21.9779 10.2195C21.9776 10.2195 21.9773 10.2195 21.9769 10.2195C21.9766 10.2195 21.9763 10.2195 21.976 10.2195C21.9757 10.2195 21.9754 10.2195 21.9751 10.2195C21.9748 10.2195 21.9745 10.2195 21.9742 10.2195C21.9739 10.2195 21.9736 10.2195 21.9733 10.2195C21.9729 10.2195 21.9726 10.2195 21.9723 10.2195C21.972 10.2195 21.9717 10.2195 21.9714 10.2195C21.9711 10.2195 21.9708 10.2195 21.9705 10.2195C21.9702 10.2195 21.9699 10.2195 21.9696 10.2195C21.9693 10.2195 21.969 10.2195 21.9687 10.2195C21.9684 10.2195 21.9681 10.2195 21.9677 10.2195C21.9674 10.2195 21.9671 10.2195 21.9668 10.2195C21.9665 10.2195 21.9662 10.2195 21.9659 10.2195C21.9656 10.2195 21.9653 10.2195 21.965 10.2195C21.9647 10.2195 21.9644 10.2195 21.9641 10.2195C21.9638 10.2195 21.9635 10.2195 21.9632 10.2195C21.9629 10.2195 21.9626 10.2195 21.9623 10.2195C21.962 10.2195 21.9617 10.2195 21.9614 10.2195C21.9611 10.2195 21.9608 10.2195 21.9605 10.2195C21.9602 10.2195 21.9599 10.2195 21.9596 10.2195C21.9593 10.2195 21.9589 10.2195 21.9586 10.2195C21.9583 10.2195 21.958 10.2195 21.9577 10.2195C21.9574 10.2195 21.9571 10.2195 21.9568 10.2195C21.9565 10.2195 21.9562 10.2195 21.9559 10.2195C21.9556 10.2195 21.9553 10.2195 21.955 10.2195C21.9547 10.2195 21.9544 10.2195 21.9541 10.2195C21.9538 10.2195 21.9535 10.2195 21.9532 10.2195C21.9529 10.2195 21.9526 10.2195 21.9523 10.2195C21.952 10.2195 21.9517 10.2195 21.9514 10.2195C21.9511 10.2195 21.9508 10.2195 21.9505 10.2195C21.9502 10.2195 21.9499 10.2195 21.9496 10.2195C21.9493 10.2195 21.949 10.2195 21.9487 10.2195C21.9484 10.2195 21.9481 10.2195 21.9478 10.2195C21.9475 10.2195 21.9473 10.2195 21.947 10.2195C21.9467 10.2195 21.9464 10.2195 21.9461 10.2195C21.9458 10.2195 21.9455 10.2195 21.9452 10.2195C21.9449 10.2195 21.9446 10.2195 21.9443 10.2195C21.944 10.2195 21.9437 10.2195 21.9434 10.2195C21.9431 10.2195 21.9428 10.2195 21.9425 10.2195C21.9422 10.2195 21.9419 10.2195 21.9416 10.2195C21.9413 10.2195 21.941 10.2195 21.9407 10.2195C21.9404 10.2195 21.9401 10.2195 21.9398 10.2195C21.9395 10.2195 21.9392 10.2195 21.939 10.2195C21.9387 10.2195 21.9384 10.2195 21.9381 10.2195C21.9378 10.2195 21.9375 10.2195 21.9372 10.2195C21.9369 10.2195 21.9366 10.2195 21.9363 10.2195C21.936 10.2195 21.9357 10.2195 21.9354 10.2195C21.9351 10.2195 21.9348 10.2195 21.9345 10.2195C21.9342 10.2195 21.934 10.2195 21.9337 10.2195C21.9334 10.2195 21.9331 10.2195 21.9328 10.2195C21.9325 10.2195 21.9322 10.2195 21.9319 10.2195C21.9316 10.2195 21.9313 10.2195 21.931 10.2195C21.9307 10.2195 21.9304 10.2195 21.9302 10.2195C21.9299 10.2195 21.9296 10.2195 21.9293 10.2195C21.929 10.2195 21.9287 10.2195 21.9284 10.2195C21.9281 10.2195 21.9278 10.2195 21.9275 10.2195C21.9272 10.2195 21.9269 10.2195 21.9267 10.2195C21.9264 10.2195 21.9261 10.2195 21.9258 10.2195C21.9255 10.2195 21.9252 10.2195 21.9249 10.2195C21.9246 10.2195 21.9243 10.2195 21.924 10.2195C21.9238 10.2195 21.9235 10.2195 21.9232 10.2195C21.9229 10.2195 21.9226 10.2195 21.9223 10.2195C21.922 10.2195 21.9217 10.2195 21.9214 10.2195C21.9212 10.2195 21.9209 10.2195 21.9206 10.2195C21.9203 10.2195 21.92 10.2195 21.9197 10.2195C21.9194 10.2195 21.9191 10.2195 21.9188 10.2195C21.9186 10.2195 21.9183 10.2195 21.918 10.2195C21.9177 10.2195 21.9174 10.2195 21.9171 10.2195C21.9168 10.2195 21.9165 10.2195 21.9163 10.2195C21.916 10.2195 21.9157 10.2195 21.9154 10.2195C21.9151 10.2195 21.9148 10.2195 21.9145 10.2195C21.9143 10.2195 21.914 10.2195 21.9137 10.2195C21.9134 10.2195 21.9131 10.2195 21.9128 10.2195C21.9125 10.2195 21.9123 10.2195 21.912 10.2195C21.9117 10.2195 21.9114 10.2195 21.9111 10.2195C21.9108 10.2195 21.9105 10.2195 21.9103 10.2195C21.91 10.2195 21.9097 10.2195 21.9094 10.2195C21.9091 10.2195 21.9088 10.2195 21.9086 10.2195C21.9083 10.2195 21.908 10.2195 21.9077 10.2195C21.9074 10.2195 21.9071 10.2195 21.9069 10.2195C21.9066 10.2195 21.9063 10.2195 21.906 10.2195C21.9057 10.2195 21.9054 10.2195 21.9052 10.2195C21.9049 10.2195 21.9046 10.2195 21.9043 10.2195C21.904 10.2195 21.9037 10.2195 21.9035 10.2195C21.9032 10.2195 21.9029 10.2195 21.9026 10.2195C21.9023 10.2195 21.9021 10.2195 21.9018 10.2195C21.9015 10.2195 21.9012 10.2195 21.9009 10.2195C21.9006 10.2195 21.9004 10.2195 21.9001 10.2195C21.8998 10.2195 21.8995 10.2195 21.8992 10.2195C21.899 10.2195 21.8987 10.2195 21.8984 10.2195C21.8981 10.2195 21.8978 10.2195 21.8976 10.2195C21.8973 10.2195 21.897 10.2195 21.8967 10.2195C21.8964 10.2195 21.8962 10.2195 21.8959 10.2195C21.8956 10.2195 21.8953 10.2195 21.895 10.2195C21.8948 10.2195 21.8945 10.2195 21.8942 10.2195C21.8939 10.2195 21.8937 10.2195 21.8934 10.2195C21.8931 10.2195 21.8928 10.2195 21.8925 10.2195C21.8923 10.2195 21.892 10.2195 21.8917 10.2195C21.8914 10.2195 21.8911 10.2195 21.8909 10.2195C21.8906 10.2195 21.8903 10.2195 21.89 10.2195C21.8898 10.2195 21.8895 10.2195 21.8892 10.2195C21.8889 10.2195 21.8887 10.2195 21.8884 10.2195C21.8881 10.2195 21.8878 10.2195 21.8876 10.2195C21.8873 10.2195 21.887 10.2195 21.8867 10.2195C21.8864 10.2195 21.8862 10.2195 21.8859 10.2195C21.8856 10.2195 21.8853 10.2195 21.8851 10.2195C21.8848 10.2195 21.8845 10.2195 21.8842 10.2195C21.884 10.2195 21.8837 10.2195 21.8834 10.2195C21.8831 10.2195 21.8829 10.2195 21.8826 10.2195C21.8823 10.2195 21.882 10.2195 21.8818 10.2195C21.8815 10.2195 21.8812 10.2195 21.881 10.2195C21.8807 10.2195 21.8804 10.2195 21.8801 10.2195C21.8799 10.2195 21.8796 10.2195 21.8793 10.2195C21.879 10.2195 21.8788 10.2195 21.8785 10.2195C21.8782 10.2195 21.8779 10.2195 21.8777 10.2195C21.8774 10.2195 21.8771 10.2195 21.8769 10.2195C21.8766 10.2195 21.8763 10.2195 21.876 10.2195C21.8758 10.2195 21.8755 10.2195 21.8752 10.2195C21.875 10.2195 21.8747 10.2195 21.8744 10.2195C21.8741 10.2195 21.8739 10.2195 21.8736 10.2195C21.8733 10.2195 21.8731 10.2195 21.8728 10.2195C21.8725 10.2195 21.8722 10.2195 21.872 10.2195C21.8717 10.2195 21.8714 10.2195 21.8712 10.2195C21.8709 10.2195 21.8706 10.2195 21.8704 10.2195C21.8701 10.2195 21.8698 10.2195 21.8696 10.2195C21.8693 10.2195 21.869 10.2195 21.8687 10.2195C21.8685 10.2195 21.8682 10.2195 21.8679 10.2195C21.8677 10.2195 21.8674 10.2195 21.8671 10.2195C21.8669 10.2195 21.8666 10.2195 21.8663 10.2195C21.8661 10.2195 21.8658 10.2195 21.8655 10.2195C21.8653 10.2195 21.865 10.2195 21.8647 10.2195C21.8645 10.2195 21.8642 10.2195 21.8639 10.2195C21.8637 10.2195 21.8634 10.2195 21.8631 10.2195C21.8629 10.2195 21.8626 10.2195 21.8623 10.2195C21.8621 10.2195 21.8618 10.2195 21.8615 10.2195C21.8613 10.2195 21.861 10.2195 21.8607 10.2195C21.8605 10.2195 21.8602 10.2195 21.8599 10.2195C21.8597 10.2195 21.8594 10.2195 21.8591 10.2195C21.8589 10.2195 21.8586 10.2195 21.8583 10.2195C21.8581 10.2195 21.8578 10.2195 21.8575 10.2195C21.8573 10.2195 21.857 10.2195 21.8567 10.2195C21.8565 10.2195 21.8562 10.2195 21.856 10.2195C21.8557 10.2195 21.8554 10.2195 21.8552 10.2195C21.8549 10.2195 21.8546 10.2195 21.8544 10.2195C21.8541 10.2195 21.8538 10.2195 21.8536 10.2195C21.8533 10.2195 21.8531 10.2195 21.8528 10.2195C21.8525 10.2195 21.8523 10.2195 21.852 10.2195C21.8517 10.2195 21.8515 10.2195 21.8512 10.2195C21.851 10.2195 21.8507 10.2195 21.8504 10.2195C21.8502 10.2195 21.8499 10.2195 21.8496 10.2195C21.8494 10.2195 21.8491 10.2195 21.8489 10.2195C21.8486 10.2195 21.8483 10.2195 21.8481 10.2195C21.8478 10.2195 21.8476 10.2195 21.8473 10.2195C21.847 10.2195 21.8468 10.2195 21.8465 10.2195C21.8463 10.2195 21.846 10.2195 21.8457 10.2195C21.8455 10.2195 21.8452 10.2195 21.845 10.2195C21.8447 10.2195 21.8444 10.2195 21.8442 10.2195C21.8439 10.2195 21.8437 10.2195 21.8434 10.2195C21.8431 10.2195 21.8429 10.2195 21.8426 10.2195C21.8424 10.2195 21.8421 10.2195 21.8419 10.2195C21.8416 10.2195 21.8413 10.2195 21.8411 10.2195C21.8408 10.2195 21.8406 10.2195 21.8403 10.2195C21.84 10.2195 21.8398 10.2195 21.8395 10.2195C21.8393 10.2195 21.839 10.2195 21.8388 10.2195C21.8385 10.2195 21.8382 10.2195 21.838 10.2195C21.8377 10.2195 21.8375 10.2195 21.8372 10.2195C21.837 10.2195 21.8367 10.2195 21.8364 10.2195C21.8362 10.2195 21.8359 10.2195 21.8357 10.2195C21.8354 10.2195 21.8352 10.2195 21.8349 10.2195C21.8347 10.2195 21.8344 10.2195 21.8341 10.2195C21.8339 10.2195 21.8336 10.2195 21.8334 10.2195C21.8331 10.2195 21.8329 10.2195 21.8326 10.2195C21.8324 10.2195 21.8321 10.2195 21.8319 10.2195C21.8316 10.2195 21.8313 10.2195 21.8311 10.2195C21.8308 10.2195 21.8306 10.2195 21.8303 10.2195C21.8301 10.2195 21.8298 10.2195 21.8296 10.2195C21.8293 10.2195 21.8291 10.2195 21.8288 10.2195C21.8286 10.2195 21.8283 10.2195 21.8281 10.2195C21.8278 10.2195 21.8275 10.2195 21.8273 10.2195C21.827 10.2195 21.8268 10.2195 21.8265 10.2195C21.8263 10.2195 21.826 10.2195 21.8258 10.2195V10.8195ZM22.3355 10.8195C22.5529 10.8195 22.7422 10.8115 22.901 10.7944L22.8365 10.1978C22.7063 10.2119 22.5401 10.2195 22.3355 10.2195V10.8195ZM22.9002 10.7944C23.0636 10.7772 23.2298 10.7473 23.3985 10.7051L23.253 10.123C23.1093 10.1589 22.9708 10.1837 22.8373 10.1977L22.9002 10.7944ZM23.4035 10.7038C23.5835 10.6555 23.7608 10.5803 23.8837 10.4501L23.4475 10.0382C23.4377 10.0486 23.3883 10.0867 23.248 10.1243L23.4035 10.7038ZM23.8822 10.4517C24.0905 10.2343 24.2936 9.92236 24.4948 9.53198L23.9615 9.25708C23.7721 9.62451 23.6001 9.87894 23.449 10.0366L23.8822 10.4517ZM24.4942 9.53302C24.6939 9.14935 24.8325 8.8467 24.896 8.63813L24.322 8.46343C24.2761 8.61424 24.1608 8.87409 23.962 9.25604L24.4942 9.53302ZM24.609 8.85078H25.0309V8.25078H24.609V8.85078ZM38.9891 3.10156L39.0011 3.40132L39.2891 3.3898V3.10156H38.9891ZM38.6492 3.17188L38.7363 3.45909L38.7441 3.45648L38.6492 3.17188ZM38.2918 3.33008L38.1361 3.07361L38.1321 3.07609L38.2918 3.33008ZM37.9578 3.62891L37.7188 3.44759L37.7178 3.44891L37.9578 3.62891ZM37.741 4.0918L37.4548 4.00199L37.4543 4.00366L37.741 4.0918ZM36.7742 7.25586L37.0612 7.34343L37.0612 7.34317L36.7742 7.25586ZM35.5848 11.1055V11.4055H35.8054L35.8711 11.1949L35.5848 11.1055ZM35.0457 11.1055L34.7606 11.1989L34.8283 11.4055H35.0457V11.1055ZM32.948 4.70703L33.2331 4.61357L32.9539 3.76183L32.6642 4.61006L32.948 4.70703ZM30.7625 11.1055V11.4055H30.977L31.0464 11.2024L30.7625 11.1055ZM30.2469 11.1055L29.9582 11.1871L30.02 11.4055H30.2469V11.1055ZM29.0457 6.85156L28.7569 6.93276L28.757 6.93296L29.0457 6.85156ZM28.2137 3.89258L28.5025 3.81135L28.5018 3.80894L28.2137 3.89258ZM28.0555 3.57031L27.8106 3.74378L27.8155 3.75031L28.0555 3.57031ZM27.7801 3.3125L27.6114 3.56059L27.6137 3.56212L27.7801 3.3125ZM27.4344 3.16602L27.3554 3.45562L27.3657 3.45804L27.4344 3.16602ZM27.0828 3.10156H26.7828V3.38016L27.0606 3.40074L27.0828 3.10156ZM27.0828 2.68555V2.38555H26.7828V2.68555H27.0828ZM30.4754 2.68555H30.7754V2.38555H30.4754V2.68555ZM30.4754 3.10156L30.4912 3.40115L30.7754 3.38619V3.10156H30.4754ZM29.7137 3.18945L29.6538 2.89549L29.6527 2.89571L29.7137 3.18945ZM29.4207 3.56445L29.1252 3.61659L29.1258 3.61974L29.4207 3.56445ZM29.45 3.7168L29.1558 3.77563L29.1575 3.7842L29.1597 3.79266L29.45 3.7168ZM29.9246 5.42188L29.6361 5.50429L29.6366 5.50598L29.9246 5.42188ZM30.9441 8.97266L30.6556 9.05479L30.9204 9.98487L31.2285 9.06825L30.9441 8.97266ZM33.0184 2.80273V2.50273H32.8027L32.734 2.70714L33.0184 2.80273ZM33.5926 2.80273L33.8773 2.70826L33.8091 2.50273H33.5926V2.80273ZM35.6844 9.10742L35.3996 9.20189L35.7035 10.1176L35.9725 9.19106L35.6844 9.10742ZM36.4109 6.57031L36.6997 6.65149L36.6999 6.65109L36.4109 6.57031ZM36.9148 4.70703L36.6244 4.63207L36.6243 4.6322L36.9148 4.70703ZM37.0906 3.96289L37.3861 4.01503L37.3863 4.01358L37.0906 3.96289ZM36.8504 3.2832L36.7162 3.55154L36.7185 3.55267L36.8504 3.2832ZM35.9715 3.10156H35.6715V3.37937L35.9485 3.40068L35.9715 3.10156ZM35.9715 2.68555V2.38555H35.6715V2.68555H35.9715ZM38.9891 2.68555H39.2891V2.38555H38.9891V2.68555ZM38.9771 2.8018C38.8426 2.80718 38.7004 2.83858 38.5543 2.88727L38.7441 3.45648C38.8558 3.41924 38.9402 3.40376 39.0011 3.40132L38.9771 2.8018ZM38.5622 2.88477C38.4105 2.93075 38.2681 2.9935 38.1361 3.07364L38.4475 3.58651C38.5342 3.53384 38.6301 3.49113 38.7362 3.45898L38.5622 2.88477ZM38.1321 3.07609C37.9689 3.17868 37.8294 3.30187 37.7188 3.44759L38.1968 3.81022C38.2581 3.72938 38.3412 3.65335 38.4514 3.58407L38.1321 3.07609ZM37.7178 3.44891C37.6076 3.5959 37.5227 3.78558 37.4548 4.002L38.0273 4.1816C38.0844 3.99957 38.144 3.88066 38.1978 3.80891L37.7178 3.44891ZM37.4543 4.00366C37.1768 4.90635 36.8545 5.96133 36.4872 7.16855L37.0612 7.34317C37.4284 6.13633 37.7505 5.08193 38.0278 4.17994L37.4543 4.00366ZM36.4873 7.16829C36.1203 8.37072 35.724 9.65329 35.2984 11.016L35.8711 11.1949C36.2971 9.83108 36.6938 8.54725 37.0612 7.34343L36.4873 7.16829ZM35.5848 10.8055H35.0457V11.4055H35.5848V10.8055ZM35.3308 11.012L33.2331 4.61357L32.663 4.80049L34.7606 11.1989L35.3308 11.012ZM32.6642 4.61006L30.4786 11.0085L31.0464 11.2024L33.2319 4.804L32.6642 4.61006ZM30.7625 10.8055H30.2469V11.4055H30.7625V10.8055ZM30.5355 11.0238C30.1489 9.65672 29.7485 8.23883 29.3344 6.77016L28.757 6.93296C29.171 8.40179 29.5715 9.81985 29.9582 11.1871L30.5355 11.0238ZM29.3345 6.77036C28.9204 5.29771 28.6431 4.31137 28.5025 3.81135L27.9249 3.9738C28.0655 4.47379 28.3428 5.46011 28.7569 6.93276L29.3345 6.77036ZM28.5018 3.80894C28.4573 3.65574 28.3891 3.51515 28.2955 3.39031L27.8155 3.75031C27.8625 3.81298 27.8997 3.88723 27.9256 3.97622L28.5018 3.80894ZM28.3003 3.39691C28.2084 3.26724 28.0876 3.15694 27.9465 3.06288L27.6137 3.56212C27.707 3.62431 27.7697 3.68589 27.8107 3.74372L28.3003 3.39691ZM27.9488 3.06442C27.8164 2.97443 27.6662 2.91236 27.5031 2.87399L27.3657 3.45804C27.4682 3.48217 27.5484 3.51776 27.6114 3.56058L27.9488 3.06442ZM27.5133 2.87659C27.3704 2.83762 27.2339 2.81193 27.105 2.80238L27.0606 3.40074C27.1427 3.40682 27.2405 3.4241 27.3554 3.45544L27.5133 2.87659ZM27.3828 3.10156V2.68555H26.7828V3.10156H27.3828ZM27.0828 2.98555H30.4754V2.38555H27.0828V2.98555ZM30.1754 2.68555V3.10156H30.7754V2.68555H30.1754ZM30.4596 2.80198C30.1531 2.81811 29.8836 2.84868 29.6538 2.89549L29.7736 3.48342C29.9656 3.44429 30.204 3.41626 30.4912 3.40115L30.4596 2.80198ZM29.6527 2.89571C29.5327 2.92062 29.4092 2.95994 29.309 3.02989C29.1989 3.10678 29.1031 3.23337 29.1031 3.40625H29.7031C29.7031 3.43467 29.6951 3.46417 29.6803 3.48907C29.6667 3.51181 29.6531 3.52143 29.6525 3.52187C29.6522 3.52208 29.6603 3.51657 29.6822 3.50843C29.7036 3.50048 29.7338 3.49167 29.7746 3.48319L29.6527 2.89571ZM29.1031 3.40625C29.1031 3.47091 29.1124 3.54342 29.1253 3.61659L29.7161 3.51232C29.7056 3.45267 29.7031 3.41972 29.7031 3.40625H29.1031ZM29.1258 3.61974C29.1377 3.68282 29.1477 3.73491 29.1558 3.77563L29.7442 3.65796C29.7367 3.62056 29.7272 3.57109 29.7156 3.50917L29.1258 3.61974ZM29.1597 3.79266C29.2505 4.14 29.4096 4.71122 29.6362 5.50429L30.2131 5.33946C29.9865 4.54659 29.8292 3.9811 29.7402 3.64094L29.1597 3.79266ZM29.6366 5.50598C29.8668 6.29402 30.2064 7.47681 30.6556 9.05479L31.2327 8.89052C30.7834 7.31225 30.4433 6.12785 30.2126 5.33777L29.6366 5.50598ZM31.2285 9.06825L33.3027 2.89833L32.734 2.70714L30.6598 8.87706L31.2285 9.06825ZM33.0184 3.10273H33.5926V2.50273H33.0184V3.10273ZM33.3078 2.89721L35.3996 9.20189L35.9691 9.01295L33.8773 2.70826L33.3078 2.89721ZM35.9725 9.19106C36.2539 8.22175 36.4963 7.37519 36.6997 6.65149L36.1221 6.48913C35.9193 7.21074 35.6774 8.05559 35.3963 9.02378L35.9725 9.19106ZM36.6999 6.65109C36.9033 5.92329 37.0719 5.3001 37.2054 4.78186L36.6243 4.6322C36.4922 5.14521 36.3248 5.76421 36.122 6.48954L36.6999 6.65109ZM37.2053 4.78199C37.2988 4.41996 37.3603 4.16104 37.3861 4.01503L36.7952 3.91075C36.7741 4.03037 36.7184 4.26754 36.6244 4.63207L37.2053 4.78199ZM37.3863 4.01358C37.4114 3.86726 37.4258 3.73389 37.4258 3.61719H36.8258C36.8258 3.68798 36.8167 3.78509 36.7949 3.9122L37.3863 4.01358ZM37.4258 3.61719C37.4258 3.31445 37.2073 3.12385 36.9823 3.01374L36.7185 3.55267C36.7868 3.58607 36.8157 3.61303 36.8255 3.62494C36.8296 3.62996 36.8291 3.63073 36.8278 3.62719C36.8263 3.62333 36.8258 3.61937 36.8258 3.61719H37.4258ZM36.9846 3.01487C36.7501 2.89763 36.4079 2.83425 35.9945 2.80245L35.9485 3.40068C36.3476 3.43138 36.5913 3.48909 36.7162 3.55153L36.9846 3.01487ZM36.2715 3.10156V2.68555H35.6715V3.10156H36.2715ZM35.9715 2.98555H38.9891V2.38555H35.9715V2.98555ZM38.6891 2.68555V3.10156H39.2891V2.68555H38.6891Z" fill="#BB83A7"/>
<path d="M78.8262 7.12878L72.1597 2.11526C71.9745 1.99114 71.772 1.96725 71.5521 2.04366C71.3324 2.12017 71.222 2.25855 71.222 2.45918V5.66781H49.5555C49.3934 5.66781 49.2603 5.7107 49.1562 5.79665C49.0522 5.88254 49 5.99241 49 6.12607V8.87624C49 9.00984 49.052 9.11971 49.1562 9.20551C49.2604 9.2914 49.3936 9.3343 49.5555 9.3343H71.2222V12.5429C71.2222 12.7341 71.3327 12.8725 71.5522 12.9582C71.7724 13.0349 71.9749 13.0059 72.1601 12.8725L78.8266 7.80137C78.9423 7.70595 79 7.59156 79 7.45775C79 7.33393 78.9419 7.22426 78.8262 7.12878Z" fill="#BB83A7"/>
</svg>
